<svg xmlns="http://www.w3.org/2000/svg" xmlns:xlink="http://www.w3.org/1999/xlink" width="500" zoomAndPan="magnify" viewBox="0 0 375 374.999991" height="500" preserveAspectRatio="xMidYMid meet" version="1.0"><defs><clipPath id="bca5d12461"><path d="M 302 102 L 330.988281 102 L 330.988281 132 L 302 132 Z M 302 102 " clip-rule="nonzero"/></clipPath><clipPath id="ff021493aa"><path d="M 43.738281 36.246094 L 289 36.246094 L 289 338.496094 L 43.738281 338.496094 Z M 43.738281 36.246094 " clip-rule="nonzero"/></clipPath></defs><g clip-path="url(#bca5d12461)"><path fill="#5ce1e6" d="M 319.9375 103.023438 C 319.199219 102.839844 318.449219 102.71875 317.691406 102.65625 C 316.933594 102.59375 316.171875 102.589844 315.414062 102.648438 C 314.652344 102.703125 313.902344 102.824219 313.160156 103 C 312.421875 103.175781 311.699219 103.410156 310.996094 103.703125 C 310.292969 103.996094 309.617188 104.34375 308.96875 104.742188 C 308.320312 105.144531 307.707031 105.589844 307.128906 106.089844 C 306.550781 106.585938 306.019531 107.125 305.527344 107.710938 C 305.035156 108.292969 304.59375 108.910156 304.203125 109.5625 C 303.980469 110.0625 303.703125 110.503906 303.480469 110.949219 C 303.097656 111.722656 302.820312 112.535156 302.652344 113.386719 C 302.421875 114.296875 302.285156 115.21875 302.238281 116.15625 C 302.191406 117.09375 302.234375 118.023438 302.371094 118.953125 C 302.507812 119.882812 302.734375 120.785156 303.050781 121.671875 C 303.363281 122.554688 303.761719 123.398438 304.242188 124.203125 C 304.722656 125.007812 305.277344 125.757812 305.90625 126.457031 C 306.535156 127.152344 307.226562 127.78125 307.980469 128.339844 C 308.730469 128.898438 309.53125 129.382812 310.378906 129.785156 C 311.226562 130.1875 312.101562 130.503906 313.011719 130.730469 C 313.738281 130.90625 314.476562 131.027344 315.21875 131.085938 C 315.964844 131.148438 316.710938 131.152344 317.457031 131.097656 C 318.203125 131.042969 318.9375 130.929688 319.667969 130.761719 C 320.394531 130.59375 321.105469 130.371094 321.800781 130.089844 C 322.492188 129.8125 323.160156 129.480469 323.804688 129.097656 C 324.445312 128.714844 325.054688 128.285156 325.628906 127.808594 C 326.207031 127.332031 326.742188 126.8125 327.234375 126.253906 C 327.730469 125.695312 328.179688 125.101562 328.582031 124.46875 L 329.636719 122.363281 L 329.691406 122.363281 C 329.972656 121.699219 330.195312 121.015625 330.355469 120.3125 C 330.578125 119.402344 330.707031 118.480469 330.746094 117.546875 C 330.789062 116.613281 330.734375 115.683594 330.59375 114.757812 C 330.453125 113.832031 330.222656 112.929688 329.902344 112.050781 C 329.585938 111.167969 329.183594 110.328125 328.699219 109.527344 C 328.21875 108.726562 327.664062 107.980469 327.03125 107.285156 C 326.402344 106.59375 325.714844 105.96875 324.960938 105.410156 C 324.210938 104.851562 323.414062 104.371094 322.566406 103.972656 C 321.722656 103.570312 320.847656 103.253906 319.9375 103.023438 Z M 319.9375 103.023438 " fill-opacity="1" fill-rule="nonzero"/></g><path fill="#5ce1e6" d="M 318.941406 248.71875 C 318.203125 248.535156 317.453125 248.414062 316.695312 248.347656 C 315.933594 248.285156 315.175781 248.28125 314.414062 248.339844 C 313.65625 248.398438 312.90625 248.515625 312.164062 248.695312 C 311.421875 248.871094 310.703125 249.105469 309.996094 249.398438 C 309.292969 249.691406 308.617188 250.035156 307.96875 250.4375 C 307.320312 250.835938 306.707031 251.285156 306.132812 251.78125 C 305.554688 252.28125 305.019531 252.820312 304.53125 253.402344 C 304.039062 253.984375 303.597656 254.605469 303.203125 255.257812 L 302.429688 256.640625 C 302.09375 257.433594 301.816406 258.246094 301.597656 259.082031 C 301.390625 259.902344 301.253906 260.734375 301.195312 261.578125 C 301.132812 262.421875 301.148438 263.261719 301.238281 264.105469 C 301.324219 264.945312 301.488281 265.773438 301.722656 266.585938 C 301.960938 267.398438 302.265625 268.183594 302.640625 268.941406 C 303.015625 269.699219 303.453125 270.417969 303.957031 271.097656 C 304.460938 271.78125 305.019531 272.410156 305.632812 272.992188 C 306.25 273.574219 306.910156 274.09375 307.617188 274.558594 C 308.324219 275.023438 309.066406 275.421875 309.847656 275.753906 C 310.625 276.082031 311.425781 276.34375 312.25 276.535156 C 313.074219 276.722656 313.910156 276.839844 314.753906 276.878906 C 315.597656 276.921875 316.441406 276.890625 317.28125 276.78125 C 318.121094 276.671875 318.941406 276.492188 319.75 276.238281 C 320.554688 275.984375 321.335938 275.660156 322.082031 275.269531 C 322.832031 274.875 323.542969 274.421875 324.210938 273.902344 C 324.878906 273.382812 325.496094 272.8125 326.066406 272.183594 C 326.632812 271.554688 327.140625 270.882812 327.585938 270.164062 C 327.972656 269.5 328.308594 268.777344 328.640625 268.113281 L 328.695312 268.113281 C 328.972656 267.449219 329.136719 266.785156 329.359375 266.0625 C 329.582031 265.152344 329.71875 264.226562 329.761719 263.289062 C 329.804688 262.351562 329.753906 261.417969 329.613281 260.492188 C 329.476562 259.5625 329.246094 258.65625 328.929688 257.773438 C 328.609375 256.890625 328.210938 256.046875 327.726562 255.242188 C 327.242188 254.4375 326.6875 253.6875 326.054688 252.992188 C 325.425781 252.296875 324.734375 251.667969 323.980469 251.109375 C 323.226562 250.550781 322.425781 250.070312 321.578125 249.667969 C 320.730469 249.265625 319.851562 248.949219 318.941406 248.71875 Z M 318.941406 248.71875 " fill-opacity="1" fill-rule="nonzero"/><g clip-path="url(#ff021493aa)"><path fill="#cbfdff" d="M 277.269531 284.515625 C 275.277344 284.109375 273.289062 284.121094 271.300781 284.554688 C 269.3125 284.988281 267.496094 285.808594 265.855469 287.011719 C 260.296875 290.96875 254.449219 294.433594 248.308594 297.40625 C 242.164062 300.378906 235.820312 302.820312 229.269531 304.726562 C 222.714844 306.632812 216.050781 307.976562 209.273438 308.761719 C 202.496094 309.546875 195.699219 309.757812 188.886719 309.398438 L 186.949219 309.289062 C 181.355469 308.914062 175.8125 308.15625 170.324219 307.015625 C 104.214844 293.328125 61.769531 228.65625 75.457031 162.597656 C 89.144531 96.539062 153.808594 54.035156 219.863281 67.722656 C 227.871094 69.367188 235.636719 71.796875 243.152344 75.003906 C 250.671875 78.214844 257.796875 82.140625 264.527344 86.785156 L 264.582031 86.785156 C 265.390625 87.539062 266.277344 88.1875 267.242188 88.726562 C 268.539062 89.417969 269.90625 89.914062 271.34375 90.222656 C 272.136719 90.378906 272.9375 90.472656 273.75 90.496094 C 274.558594 90.519531 275.363281 90.476562 276.167969 90.363281 C 276.96875 90.253906 277.757812 90.078125 278.53125 89.832031 C 279.304688 89.589844 280.050781 89.285156 280.773438 88.917969 C 281.492188 88.550781 282.179688 88.125 282.832031 87.640625 C 283.480469 87.15625 284.085938 86.625 284.648438 86.039062 C 285.210938 85.457031 285.71875 84.828125 286.175781 84.160156 C 286.628906 83.488281 287.027344 82.785156 287.367188 82.050781 C 287.707031 81.3125 287.980469 80.554688 288.191406 79.773438 C 288.402344 78.992188 288.546875 78.195312 288.628906 77.390625 C 288.707031 76.582031 288.714844 75.777344 288.660156 74.96875 C 288.601562 74.160156 288.480469 73.363281 288.289062 72.574219 C 288.101562 71.785156 287.84375 71.019531 287.527344 70.273438 C 287.207031 69.53125 286.832031 68.816406 286.394531 68.136719 C 285.953125 67.453125 285.464844 66.8125 284.917969 66.214844 C 284.375 65.613281 283.78125 65.0625 283.144531 64.5625 L 283.089844 64.5625 L 282.148438 63.898438 L 281.925781 63.730469 C 273.492188 57.796875 264.542969 52.78125 255.078125 48.683594 C 245.617188 44.585938 235.835938 41.492188 225.738281 39.402344 C 144.058594 22.5 64.097656 74.980469 47.140625 156.722656 C 30.183594 238.464844 82.714844 318.378906 164.449219 335.335938 C 169.503906 336.386719 174.597656 337.175781 179.734375 337.703125 C 184.867188 338.234375 190.019531 338.496094 195.179688 338.496094 C 200.34375 338.492188 205.492188 338.230469 210.625 337.699219 C 215.761719 337.167969 220.855469 336.378906 225.910156 335.324219 C 230.960938 334.269531 235.949219 332.960938 240.867188 331.394531 C 245.789062 329.832031 250.613281 328.019531 255.347656 325.957031 C 260.082031 323.894531 264.695312 321.597656 269.191406 319.0625 C 273.6875 316.527344 278.042969 313.769531 282.257812 310.785156 L 282.535156 310.621094 L 283.144531 310.121094 L 283.421875 309.953125 C 284.71875 308.898438 285.800781 307.65625 286.675781 306.230469 C 287.550781 304.804688 288.164062 303.273438 288.519531 301.640625 C 288.710938 300.710938 288.808594 299.769531 288.816406 298.820312 C 288.820312 297.867188 288.734375 296.925781 288.554688 295.992188 C 288.375 295.058594 288.105469 294.152344 287.75 293.269531 C 287.390625 292.390625 286.953125 291.550781 286.429688 290.757812 C 285.910156 289.960938 285.316406 289.226562 284.648438 288.546875 C 283.980469 287.871094 283.253906 287.265625 282.46875 286.730469 C 281.683594 286.195312 280.855469 285.738281 279.980469 285.367188 C 279.105469 284.996094 278.203125 284.710938 277.269531 284.515625 Z M 277.269531 284.515625 " fill-opacity="1" fill-rule="nonzero"/></g><path fill="#cbfdff" d="M 169.878906 273.601562 C 177.441406 275.714844 185.148438 276.828125 193 276.941406 C 200.851562 277.054688 208.585938 276.160156 216.207031 274.265625 L 219.417969 273.378906 L 219.476562 273.378906 C 221.15625 272.894531 222.824219 272.363281 224.476562 271.785156 C 226.128906 271.203125 227.765625 270.578125 229.378906 269.90625 C 230.996094 269.230469 232.59375 268.511719 234.167969 267.75 C 235.742188 266.984375 237.292969 266.175781 238.820312 265.320312 C 240.351562 264.464844 241.851562 263.570312 243.328125 262.628906 C 244.808594 261.6875 246.253906 260.707031 247.675781 259.683594 C 249.097656 258.660156 250.488281 257.59375 251.847656 256.492188 C 253.207031 255.386719 254.53125 254.246094 255.824219 253.066406 C 257.121094 251.886719 258.378906 250.671875 259.601562 249.417969 C 260.828125 248.167969 262.011719 246.882812 263.164062 245.5625 C 264.3125 244.242188 265.425781 242.890625 266.496094 241.503906 C 267.570312 240.121094 268.601562 238.707031 269.59375 237.265625 C 270.585938 235.820312 271.535156 234.351562 272.441406 232.851562 C 273.347656 231.355469 274.210938 229.832031 275.027344 228.285156 C 275.847656 226.738281 276.621094 225.167969 277.351562 223.574219 C 278.082031 221.984375 278.765625 220.371094 279.402344 218.742188 C 280.035156 217.109375 280.625 215.460938 281.167969 213.796875 C 281.710938 212.132812 282.203125 210.453125 282.648438 208.757812 C 283.09375 207.066406 283.492188 205.359375 283.839844 203.644531 C 284.1875 201.929688 284.484375 200.203125 284.734375 198.472656 C 284.980469 196.738281 285.179688 195 285.328125 193.253906 C 285.476562 191.507812 285.574219 189.761719 285.625 188.011719 C 285.671875 186.261719 285.667969 184.511719 285.617188 182.761719 C 285.566406 181.011719 285.460938 179.261719 285.308594 177.519531 C 285.15625 175.773438 284.953125 174.035156 284.703125 172.304688 C 284.449219 170.570312 284.148438 168.847656 283.796875 167.132812 C 283.445312 165.417969 283.042969 163.710938 282.59375 162.019531 C 282.144531 160.328125 281.648438 158.648438 281.101562 156.984375 C 280.554688 155.324219 279.960938 153.675781 279.320312 152.046875 C 278.679688 150.417969 277.996094 148.808594 277.261719 147.214844 C 276.527344 145.625 275.75 144.058594 274.925781 142.511719 C 274.105469 140.96875 273.238281 139.445312 272.328125 137.953125 C 271.417969 136.457031 270.464844 134.988281 269.46875 133.546875 C 268.476562 132.105469 267.441406 130.695312 266.363281 129.3125 C 265.289062 127.929688 264.175781 126.582031 263.019531 125.265625 C 261.867188 123.945312 260.679688 122.664062 259.449219 121.414062 C 258.222656 120.164062 256.960938 118.953125 255.664062 117.777344 C 254.367188 116.597656 253.039062 115.460938 251.675781 114.359375 C 250.316406 113.261719 248.921875 112.199219 247.5 111.179688 C 246.078125 110.160156 244.625 109.179688 243.148438 108.246094 C 241.667969 107.308594 240.164062 106.414062 238.632812 105.5625 C 237.101562 104.714844 235.546875 103.90625 233.972656 103.144531 C 232.394531 102.386719 230.796875 101.667969 229.179688 101 C 227.5625 100.332031 225.925781 99.707031 224.273438 99.132812 C 222.621094 98.558594 220.949219 98.03125 219.265625 97.550781 C 217.582031 97.070312 215.886719 96.640625 214.179688 96.257812 C 212.46875 95.875 210.75 95.542969 209.023438 95.261719 C 207.296875 94.976562 205.5625 94.742188 203.820312 94.558594 C 202.078125 94.375 200.335938 94.242188 198.585938 94.160156 C 196.835938 94.074219 195.085938 94.042969 193.335938 94.058594 C 191.585938 94.074219 189.835938 94.144531 188.089844 94.261719 C 186.34375 94.378906 184.601562 94.546875 182.863281 94.761719 C 181.125 94.980469 179.398438 95.25 177.675781 95.566406 C 175.953125 95.882812 174.242188 96.25 172.539062 96.664062 C 170.839844 97.078125 169.152344 97.542969 167.476562 98.054688 C 165.804688 98.566406 164.144531 99.128906 162.503906 99.734375 C 160.863281 100.34375 159.238281 100.996094 157.632812 101.695312 C 156.027344 102.398438 154.445312 103.144531 152.882812 103.9375 C 151.324219 104.726562 149.785156 105.5625 148.273438 106.445312 C 146.757812 107.324219 145.269531 108.246094 143.808594 109.210938 C 142.351562 110.175781 140.917969 111.183594 139.515625 112.230469 C 138.113281 113.28125 136.742188 114.367188 135.402344 115.492188 C 134.058594 116.621094 132.753906 117.785156 131.480469 118.984375 C 130.207031 120.1875 128.96875 121.425781 127.765625 122.695312 L 125.382812 125.355469 C 125.066406 125.757812 124.789062 126.179688 124.550781 126.632812 C 124.09375 127.433594 123.707031 128.265625 123.398438 129.136719 C 123.089844 130.003906 122.855469 130.894531 122.707031 131.804688 C 122.554688 132.714844 122.484375 133.632812 122.496094 134.554688 C 122.507812 135.480469 122.601562 136.394531 122.777344 137.300781 C 122.953125 138.207031 123.207031 139.089844 123.539062 139.949219 C 123.875 140.8125 124.28125 141.636719 124.761719 142.425781 C 125.242188 143.210938 125.785156 143.953125 126.398438 144.640625 C 127.011719 145.332031 127.679688 145.964844 128.40625 146.535156 C 129.128906 147.109375 129.898438 147.609375 130.714844 148.042969 C 131.527344 148.480469 132.375 148.835938 133.253906 149.121094 C 134.132812 149.402344 135.027344 149.605469 135.941406 149.730469 C 136.855469 149.851562 137.773438 149.894531 138.695312 149.851562 C 139.621094 149.8125 140.53125 149.691406 141.429688 149.488281 C 142.332031 149.285156 143.207031 149 144.054688 148.640625 C 144.90625 148.28125 145.71875 147.851562 146.492188 147.347656 C 147.261719 146.84375 147.984375 146.273438 148.65625 145.640625 L 150.097656 144.03125 C 151.335938 142.710938 152.632812 141.449219 153.988281 140.242188 C 155.339844 139.039062 156.746094 137.894531 158.199219 136.816406 C 159.65625 135.738281 161.15625 134.726562 162.703125 133.78125 C 164.25 132.835938 165.835938 131.964844 167.460938 131.164062 C 169.085938 130.359375 170.742188 129.632812 172.433594 128.980469 C 174.125 128.328125 175.839844 127.75 177.582031 127.25 C 179.324219 126.753906 181.085938 126.332031 182.863281 125.992188 C 184.644531 125.648438 186.433594 125.390625 188.238281 125.210938 C 190.039062 125.027344 191.847656 124.929688 193.660156 124.910156 C 195.472656 124.894531 197.28125 124.957031 199.085938 125.101562 C 200.894531 125.246094 202.691406 125.46875 204.476562 125.777344 C 206.261719 126.082031 208.03125 126.464844 209.78125 126.929688 C 211.535156 127.394531 213.261719 127.9375 214.964844 128.554688 C 216.667969 129.175781 218.339844 129.871094 219.980469 130.636719 C 221.621094 131.40625 223.222656 132.25 224.789062 133.164062 C 226.351562 134.074219 227.875 135.058594 229.351562 136.105469 C 230.828125 137.15625 232.253906 138.269531 233.632812 139.449219 C 235.007812 140.625 236.328125 141.863281 237.597656 143.160156 C 238.863281 144.457031 240.066406 145.804688 241.210938 147.210938 C 242.355469 148.617188 243.4375 150.070312 244.449219 151.570312 C 245.464844 153.070312 246.410156 154.617188 247.285156 156.203125 C 248.160156 157.789062 248.964844 159.410156 249.695312 161.070312 C 250.425781 162.726562 251.078125 164.414062 251.660156 166.132812 C 252.238281 167.851562 252.738281 169.589844 253.160156 171.351562 C 253.582031 173.113281 253.925781 174.890625 254.1875 176.683594 C 254.453125 178.476562 254.636719 180.277344 254.734375 182.089844 C 254.835938 183.898438 254.859375 185.707031 254.796875 187.519531 C 254.734375 189.328125 254.59375 191.132812 254.371094 192.933594 C 254.148438 194.730469 253.84375 196.515625 253.460938 198.285156 C 253.078125 200.058594 252.617188 201.808594 252.078125 203.539062 C 251.535156 205.269531 250.921875 206.96875 250.226562 208.644531 C 249.535156 210.320312 248.769531 211.957031 247.929688 213.5625 C 247.085938 215.171875 246.175781 216.734375 245.195312 218.257812 C 244.214844 219.78125 243.167969 221.257812 242.054688 222.6875 C 240.945312 224.117188 239.769531 225.496094 238.53125 226.820312 C 237.296875 228.144531 236 229.410156 234.652344 230.621094 C 233.300781 231.828125 231.898438 232.972656 230.445312 234.054688 C 228.992188 235.140625 227.496094 236.152344 225.949219 237.101562 C 224.40625 238.050781 222.824219 238.925781 221.199219 239.734375 C 219.578125 240.539062 217.921875 241.269531 216.230469 241.925781 C 214.542969 242.585938 212.828125 243.164062 211.089844 243.667969 C 209.347656 244.171875 207.589844 244.597656 205.808594 244.941406 C 204.03125 245.285156 202.238281 245.550781 200.4375 245.738281 C 198.636719 245.921875 196.828125 246.023438 195.015625 246.046875 C 193.203125 246.070312 191.394531 246.011719 189.589844 245.871094 C 187.78125 245.730469 185.984375 245.511719 184.199219 245.210938 C 182.410156 244.910156 180.640625 244.527344 178.890625 244.066406 C 177.136719 243.609375 175.40625 243.070312 173.703125 242.457031 C 166.140625 239.753906 159.398438 235.6875 153.476562 230.261719 C 153.421875 230.261719 153.421875 230.261719 153.421875 230.207031 L 152.148438 229.042969 C 151.453125 228.445312 150.714844 227.910156 149.929688 227.4375 C 149.140625 226.972656 148.316406 226.582031 147.457031 226.261719 C 146.597656 225.945312 145.714844 225.707031 144.8125 225.546875 C 143.910156 225.382812 143 225.304688 142.082031 225.304688 C 141.167969 225.304688 140.257812 225.386719 139.355469 225.550781 C 138.453125 225.714844 137.570312 225.953125 136.710938 226.273438 C 135.851562 226.59375 135.027344 226.984375 134.238281 227.453125 C 133.449219 227.917969 132.707031 228.449219 132.011719 229.046875 C 131.316406 229.644531 130.679688 230.300781 130.101562 231.011719 C 129.523438 231.722656 129.011719 232.480469 128.570312 233.28125 C 128.125 234.085938 127.757812 234.921875 127.460938 235.789062 C 127.164062 236.65625 126.949219 237.542969 126.8125 238.449219 C 126.675781 239.355469 126.617188 240.269531 126.644531 241.183594 C 126.667969 242.101562 126.773438 243.007812 126.960938 243.90625 C 127.144531 244.804688 127.410156 245.679688 127.75 246.53125 C 128.09375 247.378906 128.507812 248.195312 128.992188 248.972656 C 129.480469 249.75 130.03125 250.476562 130.648438 251.15625 C 131.171875 251.800781 131.761719 252.371094 132.421875 252.875 L 132.476562 252.875 C 137.796875 257.765625 143.621094 261.960938 149.945312 265.464844 C 156.265625 268.96875 162.910156 271.679688 169.878906 273.601562 Z M 169.878906 273.601562 " fill-opacity="1" fill-rule="nonzero"/><path fill="#5ce1e6" d="M 221.582031 181.773438 C 221.378906 180.265625 221.050781 178.789062 220.597656 177.339844 C 220.148438 175.890625 219.578125 174.488281 218.886719 173.132812 C 218.199219 171.78125 217.402344 170.492188 216.496094 169.273438 C 215.589844 168.054688 214.589844 166.921875 213.492188 165.871094 C 212.394531 164.820312 211.21875 163.871094 209.960938 163.019531 C 208.703125 162.167969 207.382812 161.425781 206 160.800781 C 204.617188 160.171875 203.191406 159.664062 201.722656 159.277344 C 200.253906 158.886719 198.761719 158.625 197.25 158.492188 C 195.738281 158.355469 194.222656 158.347656 192.710938 158.464844 C 191.195312 158.585938 189.703125 158.832031 188.230469 159.203125 C 186.757812 159.574219 185.328125 160.066406 183.9375 160.679688 C 182.546875 161.292969 181.21875 162.019531 179.953125 162.855469 C 178.6875 163.695312 177.5 164.632812 176.390625 165.671875 C 175.28125 166.707031 174.269531 167.832031 173.347656 169.042969 C 172.429688 170.25 171.617188 171.527344 170.914062 172.875 C 170.210938 174.222656 169.628906 175.617188 169.160156 177.0625 C 163.839844 180.054688 156.527344 181.882812 148.378906 181.882812 C 141.398438 181.882812 134.96875 180.496094 129.925781 178.226562 C 128.644531 176.023438 126.890625 174.304688 124.664062 173.070312 C 123.566406 172.429688 122.402344 171.949219 121.171875 171.632812 C 120.441406 171.464844 119.703125 171.355469 118.957031 171.296875 C 117.9375 171.199219 116.921875 171.210938 115.90625 171.332031 C 114.890625 171.449219 113.898438 171.679688 112.933594 172.011719 C 111.96875 172.347656 111.050781 172.78125 110.175781 173.316406 C 109.304688 173.847656 108.5 174.46875 107.761719 175.175781 L 107.707031 175.175781 L 106.652344 176.339844 C 106.089844 176.96875 105.609375 177.652344 105.210938 178.390625 C 104.75 179.207031 104.367188 180.0625 104.070312 180.953125 C 103.777344 181.847656 103.570312 182.757812 103.453125 183.691406 C 103.335938 184.625 103.3125 185.558594 103.378906 186.496094 C 103.449219 187.433594 103.605469 188.355469 103.855469 189.261719 C 104.105469 190.164062 104.441406 191.039062 104.863281 191.878906 C 105.285156 192.71875 105.785156 193.507812 106.363281 194.25 C 106.941406 194.992188 107.585938 195.667969 108.296875 196.28125 C 109.007812 196.898438 109.769531 197.4375 110.585938 197.898438 C 111.855469 198.621094 113.207031 199.132812 114.632812 199.433594 C 116.0625 199.738281 117.503906 199.816406 118.957031 199.671875 C 119.703125 199.597656 120.441406 199.46875 121.171875 199.285156 C 123.476562 198.707031 125.507812 197.617188 127.265625 196.015625 L 128.875 194.296875 C 128.875 194.261719 128.894531 194.242188 128.929688 194.242188 L 129.925781 192.746094 C 134.96875 190.417969 141.398438 189.03125 148.378906 189.03125 C 156.527344 189.03125 163.839844 190.859375 169.160156 193.910156 C 169.425781 194.695312 169.730469 195.46875 170.066406 196.226562 C 170.40625 196.984375 170.777344 197.722656 171.183594 198.449219 C 171.589844 199.171875 172.027344 199.875 172.496094 200.558594 C 172.96875 201.242188 173.46875 201.902344 174 202.539062 C 174.53125 203.175781 175.09375 203.789062 175.679688 204.375 C 176.269531 204.960938 176.882812 205.519531 177.519531 206.046875 C 178.160156 206.578125 178.824219 207.074219 179.507812 207.542969 C 180.191406 208.011719 180.898438 208.449219 181.625 208.851562 C 182.347656 209.253906 183.089844 209.625 183.851562 209.957031 C 184.609375 210.292969 185.382812 210.59375 186.167969 210.855469 C 186.957031 211.121094 187.753906 211.347656 188.5625 211.539062 C 189.371094 211.730469 190.183594 211.882812 191.007812 211.996094 C 191.828125 212.113281 192.652344 212.191406 193.480469 212.230469 C 194.3125 212.269531 195.140625 212.269531 195.96875 212.234375 C 196.796875 212.195312 197.625 212.121094 198.445312 212.007812 C 199.269531 211.894531 200.082031 211.746094 200.890625 211.558594 C 201.699219 211.367188 202.496094 211.144531 203.285156 210.882812 C 204.074219 210.621094 204.847656 210.324219 205.605469 209.992188 C 206.367188 209.660156 207.109375 209.292969 207.835938 208.890625 C 208.5625 208.488281 209.269531 208.054688 209.957031 207.589844 C 210.644531 207.125 211.308594 206.625 211.949219 206.097656 C 212.589844 205.570312 213.203125 205.015625 213.792969 204.433594 C 214.382812 203.847656 214.945312 203.238281 215.480469 202.601562 C 216.011719 201.964844 216.515625 201.308594 216.988281 200.625 C 217.460938 199.945312 217.902344 199.242188 218.308594 198.519531 C 218.71875 197.796875 219.09375 197.054688 219.433594 196.300781 C 219.773438 195.542969 220.078125 194.769531 220.347656 193.984375 C 220.617188 193.199219 220.847656 192.40625 221.042969 191.597656 C 221.238281 190.792969 221.398438 189.976562 221.519531 189.15625 C 221.640625 188.335938 221.722656 187.511719 221.769531 186.683594 C 221.8125 185.855469 221.820312 185.023438 221.789062 184.195312 C 221.757812 183.367188 221.6875 182.539062 221.582031 181.71875 Z M 221.582031 181.773438 " fill-opacity="1" fill-rule="nonzero"/></svg>