<svg xmlns="http://www.w3.org/2000/svg" xmlns:xlink="http://www.w3.org/1999/xlink" width="500" zoomAndPan="magnify" viewBox="0 0 375 374.999991" height="500" preserveAspectRatio="xMidYMid meet" version="1.0"><defs><g/><clipPath id="0e9da763cb"><path d="M 102 166 L 109.265625 166 L 109.265625 174 L 102 174 Z M 102 166 " clip-rule="nonzero"/></clipPath><clipPath id="9a3848e3d2"><path d="M 38.015625 150.105469 L 99 150.105469 L 99 225.105469 L 38.015625 225.105469 Z M 38.015625 150.105469 " clip-rule="nonzero"/></clipPath></defs><g clip-path="url(#0e9da763cb)"><path fill="#5ce1e6" d="M 106.523438 166.675781 C 106.15625 166.582031 105.78125 166.550781 105.402344 166.582031 C 105.023438 166.609375 104.65625 166.699219 104.304688 166.84375 C 103.953125 166.988281 103.636719 167.1875 103.347656 167.433594 C 103.058594 167.683594 102.816406 167.972656 102.621094 168.296875 C 102.566406 168.421875 102.496094 168.53125 102.441406 168.640625 C 102.347656 168.832031 102.277344 169.035156 102.234375 169.246094 C 102.121094 169.703125 102.097656 170.164062 102.167969 170.628906 C 102.234375 171.09375 102.390625 171.527344 102.632812 171.929688 C 102.871094 172.332031 103.179688 172.675781 103.558594 172.957031 C 103.933594 173.238281 104.351562 173.433594 104.804688 173.550781 C 105.167969 173.636719 105.535156 173.667969 105.910156 173.640625 C 106.28125 173.613281 106.640625 173.53125 106.984375 173.390625 C 107.332031 173.253906 107.648438 173.0625 107.9375 172.824219 C 108.222656 172.585938 108.46875 172.3125 108.667969 171.996094 L 108.929688 171.472656 L 108.941406 171.472656 C 109.011719 171.308594 109.066406 171.140625 109.109375 170.964844 C 109.21875 170.507812 109.238281 170.050781 109.167969 169.585938 C 109.097656 169.121094 108.9375 168.691406 108.699219 168.289062 C 108.457031 167.886719 108.144531 167.546875 107.769531 167.265625 C 107.394531 166.988281 106.976562 166.789062 106.523438 166.675781 Z M 106.523438 166.675781 " fill-opacity="1" fill-rule="nonzero"/></g><path fill="#5ce1e6" d="M 106.277344 202.828125 C 105.90625 202.734375 105.535156 202.703125 105.152344 202.734375 C 104.773438 202.761719 104.410156 202.851562 104.058594 202.996094 C 103.707031 203.140625 103.386719 203.339844 103.097656 203.585938 C 102.8125 203.835938 102.570312 204.125 102.375 204.449219 L 102.179688 204.792969 C 102.097656 204.992188 102.027344 205.191406 101.976562 205.398438 C 101.871094 205.808594 101.839844 206.222656 101.886719 206.644531 C 101.929688 207.066406 102.046875 207.464844 102.234375 207.84375 C 102.421875 208.226562 102.667969 208.558594 102.976562 208.851562 C 103.285156 209.140625 103.632812 209.371094 104.019531 209.535156 C 104.410156 209.703125 104.816406 209.792969 105.238281 209.816406 C 105.660156 209.835938 106.074219 209.78125 106.476562 209.65625 C 106.878906 209.527344 107.25 209.335938 107.582031 209.078125 C 107.917969 208.816406 108.195312 208.507812 108.421875 208.148438 C 108.515625 207.984375 108.601562 207.804688 108.683594 207.640625 L 108.695312 207.640625 C 108.765625 207.476562 108.804688 207.308594 108.859375 207.132812 C 108.972656 206.675781 108.996094 206.214844 108.925781 205.75 C 108.855469 205.285156 108.699219 204.847656 108.457031 204.445312 C 108.214844 204.042969 107.902344 203.699219 107.527344 203.421875 C 107.148438 203.140625 106.734375 202.941406 106.277344 202.828125 Z M 106.277344 202.828125 " fill-opacity="1" fill-rule="nonzero"/><g clip-path="url(#9a3848e3d2)"><path fill="#cbfdff" d="M 95.941406 211.710938 C 94.90625 211.496094 93.960938 211.703125 93.109375 212.328125 C 90.332031 214.308594 87.308594 215.773438 84.035156 216.726562 C 80.761719 217.675781 77.421875 218.0625 74.019531 217.886719 L 73.539062 217.855469 C 72.152344 217.765625 70.777344 217.574219 69.414062 217.292969 C 53.015625 213.898438 42.488281 197.847656 45.882812 181.457031 C 49.277344 165.066406 65.320312 154.519531 81.703125 157.914062 C 85.714844 158.742188 89.40625 160.316406 92.78125 162.644531 L 92.792969 162.644531 C 92.992188 162.832031 93.214844 162.992188 93.453125 163.125 C 93.773438 163.296875 94.113281 163.421875 94.46875 163.5 C 94.867188 163.578125 95.265625 163.589844 95.667969 163.535156 C 96.066406 163.476562 96.449219 163.359375 96.808594 163.175781 C 97.171875 162.992188 97.492188 162.753906 97.769531 162.460938 C 98.050781 162.167969 98.277344 161.839844 98.445312 161.46875 C 98.613281 161.101562 98.71875 160.71875 98.757812 160.3125 C 98.796875 159.910156 98.769531 159.511719 98.675781 159.117188 C 98.578125 158.726562 98.421875 158.359375 98.203125 158.015625 C 97.984375 157.675781 97.714844 157.382812 97.398438 157.132812 L 97.382812 157.132812 L 97.152344 156.964844 L 97.09375 156.925781 C 92.867188 153.949219 88.222656 151.9375 83.160156 150.886719 C 62.898438 146.695312 43.066406 159.714844 38.859375 180 C 34.65625 200.28125 47.683594 220.113281 67.957031 224.320312 C 70.472656 224.84375 73.011719 225.105469 75.578125 225.105469 C 78.148438 225.105469 80.6875 224.839844 83.203125 224.316406 C 85.714844 223.792969 88.148438 223.019531 90.503906 221.992188 C 92.855469 220.96875 95.082031 219.710938 97.179688 218.230469 L 97.246094 218.1875 L 97.398438 218.0625 L 97.464844 218.023438 C 98.128906 217.480469 98.550781 216.792969 98.730469 215.960938 C 98.828125 215.492188 98.828125 215.027344 98.738281 214.558594 C 98.648438 214.089844 98.472656 213.65625 98.214844 213.257812 C 97.953125 212.859375 97.625 212.527344 97.230469 212.257812 C 96.835938 211.992188 96.40625 211.808594 95.941406 211.710938 Z M 95.941406 211.710938 " fill-opacity="1" fill-rule="nonzero"/></g><path fill="#cbfdff" d="M 69.304688 209 C 73.121094 210.070312 76.949219 210.125 80.792969 209.167969 L 81.59375 208.945312 L 81.605469 208.945312 C 82.441406 208.707031 83.261719 208.417969 84.0625 208.085938 C 84.863281 207.75 85.644531 207.371094 86.40625 206.945312 C 87.164062 206.523438 87.894531 206.054688 88.601562 205.546875 C 89.304688 205.039062 89.980469 204.492188 90.621094 203.90625 C 91.265625 203.320312 91.871094 202.699219 92.441406 202.042969 C 93.011719 201.386719 93.542969 200.703125 94.035156 199.984375 C 94.527344 199.269531 94.976562 198.527344 95.386719 197.757812 C 95.792969 196.988281 96.152344 196.199219 96.46875 195.390625 C 96.785156 194.578125 97.054688 193.753906 97.273438 192.910156 C 97.496094 192.070312 97.667969 191.21875 97.792969 190.359375 C 97.914062 189.5 97.988281 188.632812 98.011719 187.761719 C 98.035156 186.894531 98.011719 186.027344 97.933594 185.160156 C 97.859375 184.292969 97.734375 183.433594 97.558594 182.582031 C 97.386719 181.730469 97.160156 180.890625 96.890625 180.066406 C 96.621094 179.238281 96.300781 178.429688 95.9375 177.640625 C 95.574219 176.851562 95.167969 176.085938 94.714844 175.339844 C 94.261719 174.597656 93.769531 173.882812 93.234375 173.199219 C 92.703125 172.511719 92.128906 171.859375 91.519531 171.238281 C 90.910156 170.617188 90.269531 170.035156 89.59375 169.488281 C 88.917969 168.941406 88.210938 168.4375 87.476562 167.96875 C 86.742188 167.503906 85.984375 167.082031 85.203125 166.707031 C 84.417969 166.328125 83.617188 165.996094 82.796875 165.710938 C 81.976562 165.421875 81.140625 165.1875 80.292969 164.996094 C 79.445312 164.804688 78.585938 164.664062 77.722656 164.574219 C 76.859375 164.484375 75.992188 164.441406 75.121094 164.449219 C 74.253906 164.457031 73.386719 164.515625 72.523438 164.625 C 71.664062 164.734375 70.808594 164.890625 69.964844 165.097656 C 69.121094 165.304688 68.289062 165.558594 67.476562 165.859375 C 66.660156 166.160156 65.863281 166.507812 65.089844 166.902344 C 64.3125 167.292969 63.5625 167.730469 62.839844 168.210938 C 62.113281 168.691406 61.417969 169.210938 60.753906 169.769531 C 60.085938 170.328125 59.457031 170.925781 58.859375 171.554688 L 58.269531 172.214844 C 58.1875 172.316406 58.121094 172.421875 58.0625 172.53125 C 57.832031 172.933594 57.679688 173.363281 57.605469 173.816406 C 57.527344 174.273438 57.535156 174.726562 57.621094 175.179688 C 57.710938 175.632812 57.875 176.058594 58.113281 176.453125 C 58.355469 176.847656 58.65625 177.1875 59.015625 177.472656 C 59.378906 177.757812 59.78125 177.972656 60.21875 178.113281 C 60.660156 178.253906 61.109375 178.316406 61.570312 178.296875 C 62.03125 178.273438 62.472656 178.175781 62.898438 177.996094 C 63.324219 177.816406 63.703125 177.566406 64.039062 177.25 L 64.398438 176.851562 C 65.015625 176.195312 65.683594 175.597656 66.40625 175.058594 C 67.132812 174.523438 67.898438 174.054688 68.703125 173.65625 C 69.511719 173.257812 70.347656 172.933594 71.214844 172.6875 C 72.082031 172.4375 72.960938 172.269531 73.859375 172.179688 C 74.753906 172.089844 75.652344 172.082031 76.550781 172.152344 C 77.445312 172.226562 78.332031 172.375 79.203125 172.605469 C 80.070312 172.835938 80.914062 173.144531 81.730469 173.527344 C 82.546875 173.910156 83.320312 174.363281 84.054688 174.882812 C 84.789062 175.40625 85.472656 175.988281 86.101562 176.632812 C 86.730469 177.277344 87.296875 177.972656 87.800781 178.722656 C 88.304688 179.46875 88.738281 180.253906 89.101562 181.078125 C 89.464844 181.902344 89.75 182.753906 89.960938 183.628906 C 90.171875 184.507812 90.300781 185.394531 90.351562 186.292969 C 90.402344 187.195312 90.371094 188.089844 90.261719 188.984375 C 90.148438 189.878906 89.960938 190.757812 89.691406 191.617188 C 89.421875 192.476562 89.082031 193.304688 88.664062 194.105469 C 88.246094 194.902344 87.761719 195.65625 87.207031 196.367188 C 86.652344 197.078125 86.042969 197.734375 85.371094 198.335938 C 84.699219 198.9375 83.980469 199.472656 83.210938 199.945312 C 82.445312 200.417969 81.640625 200.816406 80.800781 201.140625 C 79.960938 201.46875 79.101562 201.71875 78.214844 201.890625 C 77.332031 202.0625 76.441406 202.152344 75.539062 202.164062 C 74.636719 202.175781 73.742188 202.105469 72.855469 201.957031 C 71.96875 201.808594 71.101562 201.578125 70.253906 201.273438 C 68.378906 200.601562 66.703125 199.59375 65.234375 198.246094 C 65.222656 198.246094 65.222656 198.246094 65.222656 198.234375 L 64.90625 197.945312 C 64.734375 197.796875 64.550781 197.664062 64.355469 197.546875 C 63.960938 197.3125 63.539062 197.15625 63.085938 197.078125 C 62.636719 196.996094 62.183594 196.996094 61.734375 197.078125 C 61.28125 197.160156 60.859375 197.316406 60.464844 197.550781 C 60.070312 197.785156 59.726562 198.078125 59.4375 198.433594 C 59.148438 198.789062 58.929688 199.183594 58.78125 199.617188 C 58.636719 200.054688 58.566406 200.5 58.582031 200.957031 C 58.59375 201.417969 58.683594 201.859375 58.855469 202.285156 C 59.027344 202.710938 59.265625 203.09375 59.574219 203.433594 C 59.703125 203.589844 59.851562 203.734375 60.011719 203.859375 L 60.027344 203.859375 C 62.707031 206.320312 65.796875 208.035156 69.304688 209 Z M 69.304688 209 " fill-opacity="1" fill-rule="nonzero"/><path fill="#5ce1e6" d="M 82.128906 186.214844 C 82.027344 185.464844 81.804688 184.75 81.460938 184.070312 C 81.117188 183.394531 80.671875 182.792969 80.121094 182.269531 C 79.574219 181.746094 78.953125 181.324219 78.261719 181.011719 C 77.574219 180.695312 76.847656 180.507812 76.09375 180.4375 C 75.335938 180.371094 74.59375 180.429688 73.855469 180.613281 C 73.121094 180.800781 72.4375 181.101562 71.804688 181.523438 C 71.171875 181.941406 70.625 182.453125 70.164062 183.054688 C 69.707031 183.660156 69.359375 184.324219 69.125 185.046875 C 67.804688 185.789062 65.992188 186.242188 63.972656 186.242188 C 62.238281 186.242188 60.644531 185.898438 59.394531 185.335938 C 59.078125 184.789062 58.640625 184.363281 58.089844 184.054688 C 57.816406 183.898438 57.527344 183.777344 57.222656 183.699219 C 57.042969 183.65625 56.859375 183.628906 56.671875 183.617188 C 56.164062 183.566406 55.664062 183.625 55.179688 183.792969 C 54.695312 183.960938 54.265625 184.222656 53.898438 184.578125 L 53.882812 184.578125 L 53.621094 184.867188 C 53.484375 185.023438 53.363281 185.191406 53.265625 185.375 C 53.03125 185.785156 52.886719 186.222656 52.828125 186.691406 C 52.769531 187.160156 52.804688 187.621094 52.929688 188.074219 C 53.054688 188.527344 53.261719 188.941406 53.550781 189.3125 C 53.839844 189.683594 54.1875 189.984375 54.597656 190.21875 C 55.242188 190.582031 55.933594 190.730469 56.671875 190.65625 C 56.859375 190.636719 57.042969 190.605469 57.222656 190.5625 C 57.796875 190.417969 58.300781 190.148438 58.734375 189.75 L 59.132812 189.324219 C 59.132812 189.3125 59.136719 189.308594 59.148438 189.308594 L 59.394531 188.9375 C 60.644531 188.359375 62.238281 188.015625 63.972656 188.015625 C 65.992188 188.015625 67.804688 188.46875 69.125 189.226562 C 69.257812 189.617188 69.425781 189.992188 69.628906 190.351562 C 69.828125 190.714844 70.0625 191.050781 70.328125 191.367188 C 70.589844 191.6875 70.882812 191.976562 71.199219 192.238281 C 71.519531 192.503906 71.855469 192.734375 72.21875 192.933594 C 72.578125 193.136719 72.953125 193.300781 73.34375 193.433594 C 73.734375 193.5625 74.136719 193.65625 74.542969 193.714844 C 74.953125 193.773438 75.363281 193.792969 75.777344 193.773438 C 76.1875 193.753906 76.59375 193.699219 76.996094 193.605469 C 77.398438 193.511719 77.789062 193.382812 78.167969 193.21875 C 78.542969 193.050781 78.902344 192.851562 79.246094 192.621094 C 79.585938 192.390625 79.902344 192.128906 80.195312 191.839844 C 80.488281 191.546875 80.753906 191.234375 80.988281 190.894531 C 81.222656 190.554688 81.425781 190.195312 81.59375 189.820312 C 81.765625 189.445312 81.898438 189.054688 81.996094 188.652344 C 82.09375 188.253906 82.152344 187.847656 82.175781 187.433594 C 82.195312 187.023438 82.179688 186.609375 82.128906 186.203125 Z M 82.128906 186.214844 " fill-opacity="1" fill-rule="nonzero"/><g fill="#76ffff" fill-opacity="1"><g transform="translate(122.262798, 192.473191)"><g><path d="M 1.609375 -5.078125 L 19.71875 -26.65625 L 2.359375 -26.65625 L 2.359375 -32.484375 L 28.453125 -32.484375 L 28.453125 -27.40625 L 10.484375 -5.828125 L 28.765625 -5.828125 L 28.765625 0 L 1.609375 0 Z M 1.609375 -5.078125 "/></g></g></g><g fill="#76ffff" fill-opacity="1"><g transform="translate(159.21087, 192.473191)"><g><path d="M 18.78125 0.625 C 16.132812 0.625 13.757812 0.171875 11.65625 -0.734375 C 9.550781 -1.648438 7.765625 -2.882812 6.296875 -4.4375 C 4.828125 -5.988281 3.695312 -7.773438 2.90625 -9.796875 C 2.125 -11.816406 1.734375 -13.945312 1.734375 -16.1875 C 1.734375 -18.457031 2.125 -20.601562 2.90625 -22.625 C 3.695312 -24.65625 4.828125 -26.441406 6.296875 -27.984375 C 7.765625 -29.535156 9.550781 -30.765625 11.65625 -31.671875 C 13.757812 -32.585938 16.132812 -33.046875 18.78125 -33.046875 C 21.425781 -33.046875 23.789062 -32.585938 25.875 -31.671875 C 27.96875 -30.765625 29.75 -29.535156 31.21875 -27.984375 C 32.6875 -26.441406 33.8125 -24.65625 34.59375 -22.625 C 35.382812 -20.601562 35.78125 -18.457031 35.78125 -16.1875 C 35.78125 -13.945312 35.382812 -11.816406 34.59375 -9.796875 C 33.8125 -7.773438 32.695312 -5.988281 31.25 -4.4375 C 29.800781 -2.882812 28.019531 -1.648438 25.90625 -0.734375 C 23.800781 0.171875 21.425781 0.625 18.78125 0.625 Z M 10.296875 -16.1875 C 10.296875 -14.738281 10.507812 -13.425781 10.9375 -12.25 C 11.375 -11.070312 11.972656 -10.046875 12.734375 -9.171875 C 13.503906 -8.304688 14.40625 -7.632812 15.4375 -7.15625 C 16.46875 -6.6875 17.582031 -6.453125 18.78125 -6.453125 C 19.976562 -6.453125 21.09375 -6.6875 22.125 -7.15625 C 23.164062 -7.632812 24.066406 -8.304688 24.828125 -9.171875 C 25.597656 -10.046875 26.195312 -11.082031 26.625 -12.28125 C 27.0625 -13.476562 27.28125 -14.800781 27.28125 -16.25 C 27.28125 -17.65625 27.0625 -18.957031 26.625 -20.15625 C 26.195312 -21.351562 25.597656 -22.382812 24.828125 -23.25 C 24.066406 -24.113281 23.164062 -24.785156 22.125 -25.265625 C 21.09375 -25.742188 19.976562 -25.984375 18.78125 -25.984375 C 17.582031 -25.984375 16.46875 -25.734375 15.4375 -25.234375 C 14.40625 -24.734375 13.503906 -24.050781 12.734375 -23.1875 C 11.972656 -22.320312 11.375 -21.289062 10.9375 -20.09375 C 10.507812 -18.894531 10.296875 -17.59375 10.296875 -16.1875 Z M 10.296875 -16.1875 "/></g></g></g><g fill="#76ffff" fill-opacity="1"><g transform="translate(203.164053, 192.473191)"><g><path d="M 23.125 -25.296875 C 20.601562 -25.253906 18.347656 -24.765625 16.359375 -23.828125 C 14.378906 -22.898438 12.957031 -21.507812 12.09375 -19.65625 L 12.09375 0 L 3.78125 0 L 3.78125 -32.484375 L 11.40625 -32.484375 L 11.40625 -25.546875 C 11.988281 -26.660156 12.671875 -27.660156 13.453125 -28.546875 C 14.234375 -29.441406 15.078125 -30.21875 15.984375 -30.875 C 16.898438 -31.539062 17.820312 -32.046875 18.75 -32.390625 C 19.6875 -32.742188 20.585938 -32.921875 21.453125 -32.921875 C 21.910156 -32.921875 22.25 -32.921875 22.46875 -32.921875 C 22.695312 -32.921875 22.914062 -32.898438 23.125 -32.859375 Z M 23.125 -25.296875 "/></g></g></g><g fill="#76ffff" fill-opacity="1"><g transform="translate(233.540962, 192.473191)"><g><path d="M 5.765625 0 L 5.765625 -24.421875 L 1.484375 -24.421875 L 1.484375 -30.75 L 5.765625 -30.75 L 5.765625 -32.734375 C 5.765625 -36.785156 6.734375 -39.988281 8.671875 -42.34375 C 10.617188 -44.695312 13.265625 -45.875 16.609375 -45.875 C 19.253906 -45.875 21.921875 -45.234375 24.609375 -43.953125 L 22.9375 -37.703125 C 22.320312 -38.023438 21.585938 -38.300781 20.734375 -38.53125 C 19.890625 -38.757812 19.113281 -38.875 18.40625 -38.875 C 15.519531 -38.875 14.078125 -36.929688 14.078125 -33.046875 L 14.078125 -30.75 L 22.015625 -30.75 L 22.015625 -24.421875 L 14.078125 -24.421875 L 14.078125 0 Z M 5.765625 0 "/></g></g></g><g fill="#76ffff" fill-opacity="1"><g transform="translate(262.864008, 192.473191)"><g><path d="M 23.25 -1.671875 C 22.132812 -1.179688 20.769531 -0.6875 19.15625 -0.1875 C 17.539062 0.3125 15.847656 0.5625 14.078125 0.5625 C 12.921875 0.5625 11.832031 0.414062 10.8125 0.125 C 9.800781 -0.164062 8.910156 -0.628906 8.140625 -1.265625 C 7.378906 -1.910156 6.769531 -2.738281 6.3125 -3.75 C 5.863281 -4.757812 5.640625 -5.988281 5.640625 -7.4375 L 5.640625 -26.109375 L 1.359375 -26.109375 L 1.359375 -32.484375 L 5.640625 -32.484375 L 5.640625 -43.03125 L 13.953125 -43.03125 L 13.953125 -32.484375 L 20.765625 -32.484375 L 20.765625 -26.109375 L 13.953125 -26.109375 L 13.953125 -10.234375 C 13.953125 -9.078125 14.25 -8.257812 14.84375 -7.78125 C 15.445312 -7.300781 16.179688 -7.0625 17.046875 -7.0625 C 17.921875 -7.0625 18.769531 -7.207031 19.59375 -7.5 C 20.414062 -7.789062 21.078125 -8.039062 21.578125 -8.25 Z M 23.25 -1.671875 "/></g></g></g><g fill="#76ffff" fill-opacity="1"><g transform="translate(293.054939, 192.473191)"><g><path d="M 16.0625 0.625 C 13.332031 0.625 10.664062 0.191406 8.0625 -0.671875 C 5.457031 -1.546875 3.222656 -2.789062 1.359375 -4.40625 L 4.46875 -9.609375 C 6.445312 -8.203125 8.375 -7.132812 10.25 -6.40625 C 12.132812 -5.6875 14.007812 -5.328125 15.875 -5.328125 C 17.53125 -5.328125 18.832031 -5.632812 19.78125 -6.25 C 20.726562 -6.875 21.203125 -7.765625 21.203125 -8.921875 C 21.203125 -10.078125 20.644531 -10.925781 19.53125 -11.46875 C 18.414062 -12.007812 16.597656 -12.628906 14.078125 -13.328125 C 11.960938 -13.910156 10.160156 -14.46875 8.671875 -15 C 7.191406 -15.539062 5.992188 -16.148438 5.078125 -16.828125 C 4.171875 -17.515625 3.507812 -18.300781 3.09375 -19.1875 C 2.6875 -20.070312 2.484375 -21.132812 2.484375 -22.375 C 2.484375 -24.03125 2.800781 -25.519531 3.4375 -26.84375 C 4.082031 -28.164062 4.984375 -29.289062 6.140625 -30.21875 C 7.296875 -31.15625 8.648438 -31.867188 10.203125 -32.359375 C 11.753906 -32.859375 13.4375 -33.109375 15.25 -33.109375 C 17.6875 -33.109375 19.96875 -32.753906 22.09375 -32.046875 C 24.226562 -31.347656 26.1875 -30.210938 27.96875 -28.640625 L 24.609375 -23.625 C 22.960938 -24.863281 21.363281 -25.769531 19.8125 -26.34375 C 18.257812 -26.925781 16.71875 -27.21875 15.1875 -27.21875 C 13.78125 -27.21875 12.601562 -26.925781 11.65625 -26.34375 C 10.707031 -25.769531 10.234375 -24.84375 10.234375 -23.5625 C 10.234375 -22.976562 10.34375 -22.5 10.5625 -22.125 C 10.789062 -21.757812 11.15625 -21.429688 11.65625 -21.140625 C 12.15625 -20.847656 12.804688 -20.566406 13.609375 -20.296875 C 14.410156 -20.035156 15.410156 -19.757812 16.609375 -19.46875 C 18.847656 -18.882812 20.757812 -18.300781 22.34375 -17.71875 C 23.9375 -17.144531 25.238281 -16.484375 26.25 -15.734375 C 27.269531 -14.992188 28.015625 -14.140625 28.484375 -13.171875 C 28.960938 -12.203125 29.203125 -11.035156 29.203125 -9.671875 C 29.203125 -6.484375 28.023438 -3.96875 25.671875 -2.125 C 23.316406 -0.289062 20.113281 0.625 16.0625 0.625 Z M 16.0625 0.625 "/></g></g></g><g fill="#efefef" fill-opacity="1"><g transform="translate(123.762798, 211.923209)"><g><path d="M 8.027344 -10.519531 L 0.316406 -10.519531 L 0.316406 -9.273438 L 3.515625 -9.273438 L 3.515625 0 L 4.824219 0 L 4.824219 -9.273438 L 8.027344 -9.273438 Z M 8.027344 -10.519531 "/></g></g></g><g fill="#efefef" fill-opacity="1"><g transform="translate(137.12323, 211.923209)"><g><path d="M 2.75 -1.261719 L 2.75 -4.792969 L 6.988281 -4.792969 L 6.988281 -6.011719 L 2.75 -6.011719 L 2.75 -9.257812 L 7.378906 -9.257812 L 7.378906 -10.519531 L 1.429688 -10.519531 L 1.429688 0 L 7.546875 0 L 7.546875 -1.261719 Z M 2.75 -1.261719 "/></g></g></g><g fill="#efefef" fill-opacity="1"><g transform="translate(150.438582, 211.923209)"><g><path d="M 6.101562 0.164062 C 8.582031 0.164062 10.535156 -1.324219 11.136719 -3.699219 L 9.800781 -3.699219 C 9.242188 -2.089844 7.875 -1.128906 6.101562 -1.128906 C 3.757812 -1.128906 2.058594 -2.824219 2.058594 -5.246094 C 2.058594 -7.664062 3.757812 -9.394531 6.101562 -9.394531 C 7.832031 -9.394531 9.183594 -8.476562 9.738281 -6.957031 L 11.09375 -6.957031 C 10.492188 -9.226562 8.535156 -10.671875 6.101562 -10.671875 C 2.976562 -10.671875 0.707031 -8.402344 0.707031 -5.246094 C 0.707031 -2.105469 2.976562 0.164062 6.101562 0.164062 Z M 6.101562 0.164062 "/></g></g></g><g fill="#efefef" fill-opacity="1"><g transform="translate(167.104157, 211.923209)"><g><path d="M 8.191406 -10.519531 L 8.191406 -6.042969 L 2.75 -6.042969 L 2.75 -10.519531 L 1.429688 -10.519531 L 1.429688 0 L 2.75 0 L 2.75 -4.78125 L 8.191406 -4.78125 L 8.191406 0 L 9.515625 0 L 9.515625 -10.519531 Z M 8.191406 -10.519531 "/></g></g></g><g fill="#efefef" fill-opacity="1"><g transform="translate(183.063635, 211.923209)"><g><path d="M 8.523438 -10.519531 L 8.523438 -2.40625 L 2.628906 -10.519531 L 1.429688 -10.519531 L 1.429688 0 L 2.71875 0 L 2.71875 -8.207031 L 8.703125 0 L 9.816406 0 L 9.816406 -10.519531 Z M 8.523438 -10.519531 "/></g></g></g><g fill="#efefef" fill-opacity="1"><g transform="translate(199.323577, 211.923209)"><g><path d="M 6.222656 0.179688 C 9.410156 0.179688 11.722656 -2.148438 11.722656 -5.246094 C 11.722656 -8.355469 9.410156 -10.6875 6.222656 -10.6875 C 3.035156 -10.6875 0.707031 -8.355469 0.707031 -5.246094 C 0.707031 -2.148438 3.035156 0.179688 6.222656 0.179688 Z M 6.222656 -1.113281 C 3.832031 -1.113281 2.058594 -2.902344 2.058594 -5.246094 C 2.058594 -7.605469 3.832031 -9.394531 6.222656 -9.394531 C 8.613281 -9.394531 10.386719 -7.621094 10.386719 -5.246094 C 10.386719 -2.886719 8.613281 -1.113281 6.222656 -1.113281 Z M 6.222656 -1.113281 "/></g></g></g><g fill="#efefef" fill-opacity="1"><g transform="translate(216.785401, 211.923209)"><g><path d="M 2.75 -1.234375 L 2.75 -10.519531 L 1.429688 -10.519531 L 1.429688 0 L 7.363281 0 L 7.363281 -1.234375 Z M 2.75 -1.234375 "/></g></g></g><g fill="#efefef" fill-opacity="1"><g transform="translate(229.4848, 211.923209)"><g><path d="M 6.222656 0.179688 C 9.410156 0.179688 11.722656 -2.148438 11.722656 -5.246094 C 11.722656 -8.355469 9.410156 -10.6875 6.222656 -10.6875 C 3.035156 -10.6875 0.707031 -8.355469 0.707031 -5.246094 C 0.707031 -2.148438 3.035156 0.179688 6.222656 0.179688 Z M 6.222656 -1.113281 C 3.832031 -1.113281 2.058594 -2.902344 2.058594 -5.246094 C 2.058594 -7.605469 3.832031 -9.394531 6.222656 -9.394531 C 8.613281 -9.394531 10.386719 -7.621094 10.386719 -5.246094 C 10.386719 -2.886719 8.613281 -1.113281 6.222656 -1.113281 Z M 6.222656 -1.113281 "/></g></g></g><g fill="#efefef" fill-opacity="1"><g transform="translate(246.946617, 211.923209)"><g><path d="M 5.679688 -5.214844 L 5.679688 -3.96875 L 9.875 -3.96875 C 9.5 -2.253906 7.980469 -1.113281 6.058594 -1.113281 C 3.683594 -1.113281 2.058594 -2.8125 2.058594 -5.246094 C 2.058594 -7.664062 3.726562 -9.378906 6.058594 -9.378906 C 7.832031 -9.378906 9.332031 -8.371094 9.785156 -6.839844 L 11.152344 -6.839844 C 10.6875 -9.09375 8.550781 -10.671875 6.027344 -10.671875 C 2.960938 -10.671875 0.722656 -8.371094 0.722656 -5.246094 C 0.722656 -2.121094 2.960938 0.179688 6.058594 0.179688 C 9.09375 0.179688 11.257812 -2.042969 11.316406 -5.214844 Z M 5.679688 -5.214844 "/></g></g></g><g fill="#efefef" fill-opacity="1"><g transform="translate(263.942706, 211.923209)"><g><path d="M 1.429688 0 L 2.75 0 L 2.75 -10.519531 L 1.429688 -10.519531 Z M 1.429688 0 "/></g></g></g><g fill="#efefef" fill-opacity="1"><g transform="translate(273.141649, 211.923209)"><g><path d="M 2.75 -1.261719 L 2.75 -4.792969 L 6.988281 -4.792969 L 6.988281 -6.011719 L 2.75 -6.011719 L 2.75 -9.257812 L 7.378906 -9.257812 L 7.378906 -10.519531 L 1.429688 -10.519531 L 1.429688 0 L 7.546875 0 L 7.546875 -1.261719 Z M 2.75 -1.261719 "/></g></g></g><g fill="#efefef" fill-opacity="1"><g transform="translate(286.456998, 211.923209)"><g><path d="M 4.570312 0.136719 C 6.660156 0.136719 8.28125 -0.992188 8.28125 -2.976562 C 8.28125 -5.171875 6.417969 -5.605469 4.765625 -6.011719 C 3.410156 -6.328125 2.195312 -6.628906 2.195312 -7.769531 C 2.195312 -8.777344 3.15625 -9.378906 4.433594 -9.378906 C 5.710938 -9.378906 6.671875 -8.703125 6.671875 -7.53125 L 7.980469 -7.53125 C 7.980469 -9.4375 6.644531 -10.640625 4.464844 -10.640625 C 2.285156 -10.640625 0.886719 -9.542969 0.886719 -7.726562 C 0.886719 -5.621094 2.675781 -5.183594 4.296875 -4.808594 C 5.667969 -4.480469 6.914062 -4.195312 6.914062 -2.960938 C 6.914062 -1.847656 5.875 -1.15625 4.554688 -1.15625 C 3.097656 -1.15625 2.027344 -1.925781 2.027344 -3.230469 L 0.675781 -3.230469 C 0.675781 -1.15625 2.253906 0.136719 4.570312 0.136719 Z M 4.570312 0.136719 "/></g></g></g></svg>