<svg width="166" height="138" viewBox="0 0 166 138" fill="none" xmlns="http://www.w3.org/2000/svg">
<mask id="mask0_11_11" style="mask-type:luminance" maskUnits="userSpaceOnUse" x="40" y="46" width="6" height="5">
<path d="M40.9697 46.1396H45.1961V50.4773H40.9697V46.1396Z" fill="white"/>
</mask>
<g mask="url(#mask0_11_11)">
<mask id="mask1_11_11" style="mask-type:luminance" maskUnits="userSpaceOnUse" x="41" y="46" width="5" height="5">
<path d="M43.6851 46.5564C43.4803 46.5072 43.2738 46.4903 43.0656 46.5056C42.8557 46.5208 42.6543 46.5682 42.4599 46.6479C42.2672 46.7275 42.0899 46.8343 41.9316 46.9681C41.7716 47.1037 41.6391 47.2596 41.5306 47.4358C41.4997 47.5036 41.4618 47.5629 41.4326 47.6222C41.3792 47.7272 41.3413 47.8357 41.3173 47.9509C41.2863 48.0729 41.2674 48.1966 41.2622 48.3237C41.2553 48.4491 41.2605 48.5745 41.2794 48.6999C41.2983 48.8252 41.3293 48.9472 41.3723 49.0659C41.4153 49.1845 41.4704 49.298 41.5358 49.4064C41.6012 49.5149 41.6786 49.6149 41.7647 49.7097C41.8507 49.8029 41.9436 49.8877 42.0469 49.9622C42.1501 50.0385 42.2603 50.1029 42.3756 50.1571C42.4926 50.2113 42.6113 50.2537 42.7369 50.2842C42.9366 50.3316 43.1396 50.3486 43.3444 50.3333C43.5492 50.3197 43.7488 50.274 43.9398 50.1977C44.1308 50.1232 44.3046 50.0198 44.4629 49.8911C44.6213 49.7623 44.7572 49.6132 44.8673 49.442L45.0119 49.1591H45.0188C45.0583 49.0692 45.0876 48.9777 45.11 48.8829C45.1409 48.7609 45.1582 48.6372 45.1633 48.5101C45.1702 48.3847 45.1616 48.2593 45.1427 48.1356C45.1237 48.0102 45.0928 47.8899 45.048 47.7713C45.005 47.6527 44.9499 47.5392 44.8845 47.4324C44.8174 47.324 44.7417 47.224 44.6557 47.1308C44.5696 47.0376 44.475 46.9529 44.3717 46.8783C44.2685 46.8021 44.1601 46.7377 44.0448 46.6835C43.9295 46.6292 43.809 46.5869 43.6851 46.5564Z" fill="white"/>
</mask>
<g mask="url(#mask1_11_11)">
<path d="M41.4154 45.7261L40.4758 50.1893L45.0085 51.1128L45.9481 46.6496L41.4154 45.7261Z" fill="url(#paint0_linear_11_11)"/>
</g>
</g>
<mask id="mask2_11_11" style="mask-type:luminance" maskUnits="userSpaceOnUse" x="40" y="66" width="6" height="4">
<path d="M40.9697 66.0933H45.1961V69.9973H40.9697V66.0933Z" fill="white"/>
</mask>
<g mask="url(#mask2_11_11)">
<mask id="mask3_11_11" style="mask-type:luminance" maskUnits="userSpaceOnUse" x="41" y="66" width="5" height="4">
<path d="M43.5476 66.1592C43.3445 66.1101 43.138 66.0931 42.9281 66.1084C42.7199 66.1236 42.5185 66.1711 42.3241 66.2507C42.1296 66.3304 41.9541 66.4371 41.7941 66.571C41.6358 66.7065 41.5015 66.8624 41.3948 67.0386L41.2882 67.225C41.2417 67.3318 41.2038 67.4419 41.1746 67.5538C41.1161 67.7757 41.1006 68.0011 41.1247 68.2298C41.1488 68.4569 41.2142 68.6738 41.3174 68.8805C41.4207 69.0855 41.5566 69.2668 41.727 69.4244C41.8956 69.582 42.0883 69.7057 42.3034 69.7955C42.5185 69.887 42.7423 69.9361 42.9746 69.948C43.2086 69.9599 43.4358 69.9311 43.6595 69.8616C43.8814 69.7921 44.0845 69.6888 44.2686 69.5481C44.4545 69.4075 44.6076 69.2397 44.7315 69.0449C44.7849 68.9551 44.8296 68.8585 44.8761 68.7687H44.883C44.9208 68.6789 44.9432 68.5891 44.9742 68.4925C45.0052 68.3705 45.0224 68.2451 45.0292 68.1197C45.0344 67.9926 45.0275 67.8672 45.0086 67.7435C44.9897 67.6181 44.9587 67.4961 44.9157 67.3775C44.8709 67.2589 44.8176 67.1454 44.7505 67.037C44.6851 66.9285 44.6076 66.8268 44.5216 66.7336C44.4356 66.6405 44.3409 66.5557 44.2377 66.4812C44.1344 66.4049 44.026 66.3405 43.909 66.2863C43.7937 66.2321 43.6732 66.1897 43.5476 66.1592Z" fill="white"/>
</mask>
<g mask="url(#mask3_11_11)">
<path d="M41.2624 65.3241L40.3193 69.8008L44.8727 70.7276L45.8157 66.2526L41.2624 65.3241Z" fill="url(#paint1_linear_11_11)"/>
</g>
</g>
<mask id="mask4_11_11" style="mask-type:luminance" maskUnits="userSpaceOnUse" x="5" y="37" width="35" height="42">
<path d="M5.87842 37.5724H39.6481V78.2391H5.87842V37.5724Z" fill="white"/>
</mask>
<g mask="url(#mask4_11_11)">
<mask id="mask5_11_11" style="mask-type:luminance" maskUnits="userSpaceOnUse" x="5" y="37" width="35" height="42">
<path d="M37.8443 70.975C37.5707 70.9208 37.2988 70.9225 37.0269 70.9801C36.755 71.0394 36.5055 71.1496 36.2818 71.3122C35.5212 71.8443 34.7193 72.3103 33.8795 72.7102C33.038 73.11 32.1707 73.4388 31.2725 73.6946C30.3759 73.9505 29.4639 74.1318 28.5363 74.2385C27.6088 74.3436 26.6778 74.3724 25.7452 74.3233L25.4801 74.308C24.7144 74.2589 23.9555 74.1555 23.2052 74.003C14.1553 72.1612 8.3458 63.4602 10.2198 54.5728C12.0938 45.6838 20.944 39.965 29.9853 41.8069C32.2 42.2542 34.2392 43.1099 36.0994 44.3723H36.1063C36.2181 44.4739 36.3386 44.5603 36.4711 44.6332C36.6484 44.7264 36.8359 44.7925 37.0321 44.8348C37.2506 44.8772 37.4709 44.884 37.6929 44.8535C37.9132 44.823 38.1248 44.7586 38.3227 44.6586C38.5223 44.5587 38.6996 44.4299 38.8545 44.2706C39.0076 44.113 39.1332 43.9334 39.2262 43.7352C39.3191 43.5352 39.3759 43.3268 39.3982 43.1082C39.4206 42.8896 39.4051 42.6727 39.3518 42.4592C39.3002 42.2457 39.2124 42.0475 39.0919 41.8628C38.9715 41.6781 38.8235 41.5171 38.648 41.3816H38.6411L38.512 41.2918L38.481 41.2697C36.1476 39.6566 33.5835 38.5654 30.7906 37.9961C19.6104 35.7221 8.66416 42.7829 6.34447 53.7815C4.02307 64.7802 11.2127 75.5314 22.4016 77.8138C23.7886 78.0968 25.191 78.2391 26.6073 78.2391C28.0235 78.2374 29.426 78.0951 30.813 77.8121C32.2 77.5275 33.544 77.1072 34.8432 76.5515C36.1424 75.9957 37.3694 75.3145 38.5258 74.5097L38.5636 74.4876L38.648 74.4198L38.6858 74.3978C39.0506 74.1047 39.2829 73.7319 39.3845 73.2795C39.4103 73.1541 39.4223 73.0287 39.4241 72.8999C39.4241 72.7729 39.4137 72.6458 39.3879 72.5204C39.3638 72.3933 39.3277 72.2713 39.2778 72.1527C39.2296 72.0358 39.1694 71.9222 39.0971 71.8155C39.0265 71.7087 38.9457 71.6088 38.8545 71.519C38.7633 71.4275 38.6634 71.3461 38.555 71.2733C38.4483 71.2021 38.3348 71.1411 38.2143 71.0903C38.0956 71.0394 37.9717 71.0022 37.8443 70.975Z" fill="white"/>
</mask>
<g mask="url(#mask5_11_11)">
<path d="M7.25844 31.0234L-2.33521 76.5667L38.0459 84.7865L47.6395 39.2432L7.25844 31.0234Z" fill="url(#paint2_linear_11_11)"/>
</g>
</g>
<mask id="mask6_11_11" style="mask-type:luminance" maskUnits="userSpaceOnUse" x="16" y="45" width="24" height="25">
<path d="M16.2998 45.272H39.2075V69.9973H16.2998V45.272Z" fill="white"/>
</mask>
<g mask="url(#mask6_11_11)">
<mask id="mask7_11_11" style="mask-type:luminance" maskUnits="userSpaceOnUse" x="16" y="45" width="23" height="25">
<path d="M23.1453 69.5076C24.1795 69.7906 25.2344 69.9414 26.3099 69.9567C27.3837 69.9719 28.4421 69.8516 29.4849 69.5958L29.9254 69.4771H29.934C30.3935 69.3467 30.8461 69.1908 31.2883 69.0095C31.7323 68.8282 32.1625 68.6231 32.5807 68.3927C33.0005 68.1623 33.4049 67.9098 33.7938 67.6336C34.1828 67.3591 34.5545 67.0626 34.9089 66.744C35.2634 66.4271 35.5973 66.0899 35.9139 65.7341C36.2288 65.3783 36.5214 65.0072 36.7933 64.6175C37.0651 64.2294 37.313 63.8262 37.5367 63.4093C37.7621 62.9925 37.9617 62.5655 38.1355 62.1266C38.3093 61.6861 38.459 61.2388 38.5812 60.7829C38.7017 60.3271 38.798 59.8646 38.8651 59.3986C38.934 58.9326 38.9736 58.4633 38.9873 57.9905C39.0011 57.5194 38.9856 57.0501 38.9443 56.579C38.903 56.1097 38.8342 55.6437 38.7378 55.1828C38.6414 54.7202 38.5175 54.2644 38.3678 53.8171C38.2181 53.3698 38.0443 52.9309 37.843 52.5022C37.6416 52.0735 37.4162 51.6584 37.1684 51.2551C36.9189 50.8535 36.6453 50.4655 36.351 50.0944C36.0567 49.7216 35.7418 49.3675 35.4045 49.0303C35.069 48.6948 34.7145 48.3779 34.3411 48.0814C33.9676 47.7849 33.5787 47.5121 33.1726 47.2596C32.7682 47.0071 32.3501 46.7784 31.9181 46.5733C31.4862 46.3683 31.0422 46.1887 30.5897 46.0328C30.1371 45.8786 29.6759 45.7498 29.2078 45.6465C28.7398 45.5431 28.2682 45.4669 27.7899 45.4177C27.3132 45.3686 26.8348 45.3466 26.3547 45.3499C25.8763 45.355 25.3979 45.3872 24.9212 45.4448C24.4463 45.5041 23.9748 45.5889 23.5084 45.7007C23.0421 45.8125 22.5843 45.9498 22.1352 46.1141C21.6843 46.2768 21.2455 46.4666 20.8188 46.6784C20.3903 46.8919 19.9773 47.1291 19.5763 47.3884C19.1754 47.6493 18.7916 47.9306 18.4251 48.2339C18.0585 48.5372 17.7092 48.8608 17.3805 49.2031L17.0536 49.5606C17.0106 49.6149 16.9727 49.6725 16.94 49.7335C16.8127 49.9504 16.7301 50.1825 16.687 50.4299C16.6457 50.6756 16.6492 50.923 16.6974 51.1687C16.7455 51.4144 16.8368 51.6431 16.9693 51.8583C17.1018 52.0718 17.267 52.2565 17.4683 52.4107C17.6679 52.5666 17.8882 52.6818 18.1308 52.7581C18.3735 52.836 18.6213 52.8682 18.8759 52.858C19.1306 52.8462 19.375 52.7919 19.609 52.6937C19.8448 52.5971 20.0547 52.4615 20.2388 52.2904L20.4367 52.0735C20.7775 51.7177 21.1474 51.394 21.5467 51.1026C21.9459 50.8128 22.3675 50.5587 22.8132 50.3418C23.2589 50.1266 23.7218 49.9504 24.1985 49.8165C24.6769 49.6809 25.1621 49.5894 25.6577 49.542C26.1516 49.4929 26.6472 49.4878 27.1428 49.5268C27.6384 49.5657 28.1254 49.6471 28.6073 49.7724C29.0874 49.8978 29.552 50.0639 30.0028 50.2723C30.452 50.479 30.8805 50.7247 31.2849 51.0077C31.6893 51.2907 32.0661 51.6075 32.4137 51.9566C32.7613 52.3056 33.0728 52.6835 33.3516 53.0885C33.6304 53.4934 33.8696 53.9188 34.0692 54.3661C34.2705 54.8134 34.4288 55.2743 34.5441 55.7504C34.6594 56.2249 34.7317 56.7061 34.7592 57.1941C34.7868 57.6821 34.7713 58.1684 34.7093 58.653C34.6491 59.1376 34.5441 59.6138 34.3961 60.0798C34.2481 60.5474 34.0589 60.9964 33.8283 61.4285C33.5977 61.8623 33.3292 62.2724 33.0246 62.657C32.7183 63.0433 32.381 63.3992 32.0111 63.7245C31.6394 64.0498 31.2436 64.3413 30.8202 64.5971C30.3952 64.8513 29.9529 65.0682 29.49 65.2461C29.0254 65.4223 28.5505 65.5579 28.0635 65.6511C27.5748 65.7443 27.0826 65.7934 26.5853 65.8002C26.088 65.8053 25.5941 65.768 25.1054 65.6867C24.6149 65.6053 24.1348 65.4816 23.6685 65.3173C22.6325 64.953 21.7102 64.4057 20.8996 63.6754C20.8928 63.6754 20.8928 63.6754 20.8928 63.6686L20.7172 63.5127C20.6226 63.4314 20.5211 63.3602 20.4144 63.2958C20.1958 63.1704 19.9618 63.0857 19.714 63.0416C19.4645 62.9976 19.2149 62.9976 18.9671 63.0416C18.7176 63.0857 18.4836 63.1721 18.2668 63.2975C18.0482 63.4246 17.8589 63.5839 17.7006 63.777C17.5406 63.9702 17.4201 64.1837 17.3375 64.4192C17.2566 64.6548 17.2188 64.8971 17.2257 65.1461C17.2325 65.3935 17.2842 65.6341 17.3788 65.8646C17.4717 66.095 17.6042 66.3034 17.7746 66.4864C17.8469 66.5729 17.9278 66.6508 18.0172 66.7186H18.0241C19.5023 68.0538 21.2094 68.9824 23.1453 69.5076Z" fill="white"/>
</mask>
<g mask="url(#mask7_11_11)">
<path d="M49.3346 50.7027L21.5087 36.2796L6.3103 64.6158L34.1379 79.0372L49.3346 50.7027Z" fill="url(#paint3_linear_11_11)"/>
</g>
</g>
<mask id="mask8_11_11" style="mask-type:luminance" maskUnits="userSpaceOnUse" x="13" y="53" width="18" height="9">
<path d="M13.6565 53.9476H30.3968V61.3218H13.6565V53.9476Z" fill="white"/>
</mask>
<g mask="url(#mask8_11_11)">
<mask id="mask9_11_11" style="mask-type:luminance" maskUnits="userSpaceOnUse" x="14" y="54" width="17" height="8">
<path d="M30.2212 57.1518C30.1937 56.9501 30.149 56.7502 30.087 56.5553C30.0251 56.3605 29.9476 56.1724 29.853 55.9894C29.7583 55.8081 29.6499 55.6335 29.526 55.4709C29.4021 55.3065 29.2645 55.154 29.1147 55.0117C28.9633 54.871 28.8033 54.744 28.6312 54.6287C28.4591 54.5135 28.2784 54.4152 28.0891 54.3305C27.8998 54.2458 27.7037 54.178 27.5023 54.1255C27.3027 54.073 27.0979 54.0374 26.8914 54.0187C26.6832 54.0018 26.4767 54.0001 26.2702 54.0154C26.062 54.0323 25.8572 54.0645 25.6559 54.1153C25.4545 54.1645 25.2584 54.2322 25.0691 54.3136C24.8781 54.3966 24.6974 54.4949 24.5236 54.6067C24.3498 54.7202 24.188 54.8456 24.0348 54.9863C23.8834 55.1252 23.7457 55.276 23.6201 55.4387C23.4928 55.6014 23.3826 55.7742 23.2863 55.9555C23.1899 56.1351 23.1108 56.3232 23.0454 56.518C22.3175 56.9213 21.3159 57.167 20.2008 57.167C19.2458 57.167 18.3664 56.9806 17.6764 56.6739C17.5008 56.3791 17.2599 56.147 16.9553 55.9809C16.8056 55.8945 16.6456 55.8301 16.4769 55.7877C16.3771 55.7657 16.2756 55.7505 16.1741 55.742C15.8919 55.7149 15.6165 55.7471 15.3498 55.8386C15.0831 55.9301 14.8456 56.0724 14.6425 56.2639H14.6339L14.4894 56.4215C14.4137 56.5062 14.3483 56.5977 14.2932 56.6977C14.2295 56.8078 14.1779 56.9213 14.1366 57.0416C14.097 57.1619 14.0678 57.2839 14.0523 57.4093C14.0368 57.5347 14.0334 57.6618 14.042 57.7872C14.0506 57.9143 14.0729 58.038 14.1074 58.16C14.1418 58.282 14.1882 58.3989 14.245 58.5124C14.3035 58.6242 14.3706 58.731 14.4498 58.831C14.529 58.9309 14.6167 59.0207 14.7148 59.1038C14.8129 59.1868 14.9161 59.2597 15.028 59.3224C15.3842 59.5206 15.7662 59.6002 16.1741 59.5596C16.2756 59.5494 16.3771 59.5325 16.4769 59.5087C16.7936 59.4308 17.0706 59.2834 17.3115 59.0682L17.5318 58.8377C17.5318 58.8327 17.5335 58.8293 17.5387 58.8293L17.6764 58.6276C18.3664 58.3159 19.2458 58.1295 20.2008 58.1295C21.3159 58.1295 22.3175 58.3752 23.0454 58.7852C23.1194 58.997 23.2106 59.2004 23.3224 59.3952C23.4343 59.5901 23.5633 59.7748 23.7079 59.9459C23.8542 60.1187 24.0159 60.2746 24.1897 60.4187C24.3652 60.561 24.5528 60.6864 24.7524 60.7948C24.9503 60.9033 25.1585 60.9948 25.3737 61.0659C25.5905 61.1354 25.8107 61.1879 26.0362 61.2184C26.2616 61.2489 26.4888 61.2608 26.7159 61.2506C26.9431 61.2405 27.1668 61.21 27.3887 61.1591C27.6107 61.1083 27.8258 61.0388 28.0341 60.949C28.244 60.8592 28.4419 60.7508 28.6295 60.6254C28.8188 60.5 28.9943 60.3577 29.156 60.2001C29.3178 60.0425 29.4624 59.873 29.5931 59.6884C29.7222 59.5054 29.8341 59.3105 29.927 59.1072C30.0199 58.9021 30.0939 58.692 30.1472 58.4734C30.2023 58.2565 30.235 58.0363 30.2471 57.8126C30.2591 57.5889 30.2505 57.367 30.2212 57.145V57.1518Z" fill="white"/>
</mask>
<g mask="url(#mask9_11_11)">
<path d="M14.6993 50.8332L12.5654 60.9609L29.5914 64.4277L31.7252 54.2983L14.6993 50.8332Z" fill="url(#paint4_linear_11_11)"/>
</g>
</g>
<path d="M51.0376 58.4384L61.046 46.6925H51.4506V43.5205H65.8781V46.2858L55.9385 58.0317H66.0501V61.2037H51.0376V58.4384Z" fill="#004AAD"/>
<path d="M80.9631 61.5426C79.4987 61.5426 78.184 61.2952 77.019 60.8038C75.8523 60.3073 74.8645 59.6363 74.0523 58.7908C73.2435 57.947 72.6222 56.9727 72.1869 55.8696C71.7498 54.7682 71.533 53.6092 71.533 52.3926C71.533 51.159 71.7498 49.9915 72.1869 48.8885C72.6222 47.7871 73.2435 46.8128 74.0523 45.9672C74.8645 45.1234 75.8523 44.4541 77.019 43.961C78.184 43.4645 79.4987 43.2155 80.9631 43.2155C82.4224 43.2155 83.7268 43.4645 84.8797 43.961C86.0361 44.4541 87.0205 45.1234 87.8327 45.9672C88.6449 46.8128 89.2661 47.7871 89.6981 48.8885C90.1334 49.9915 90.352 51.159 90.352 52.3926C90.352 53.6092 90.1334 54.7682 89.6981 55.8696C89.2661 56.9727 88.6484 57.947 87.8465 58.7908C87.048 59.6363 86.0654 60.3073 84.9004 60.8038C83.7337 61.2952 82.4224 61.5426 80.9631 61.5426ZM76.2687 52.3926C76.2687 53.1839 76.3874 53.9006 76.6266 54.5411C76.8641 55.1833 77.1945 55.7408 77.6178 56.2152C78.0394 56.6863 78.535 57.0489 79.1046 57.3065C79.6777 57.564 80.2972 57.6928 80.9631 57.6928C81.6239 57.6928 82.2383 57.564 82.8079 57.3065C83.3809 57.0489 83.8782 56.6863 84.3015 56.2152C84.7231 55.7408 85.0535 55.1782 85.2927 54.5276C85.5354 53.8735 85.6576 53.1517 85.6576 52.3655C85.6576 51.5979 85.5354 50.8879 85.2927 50.2372C85.0535 49.5832 84.7231 49.0206 84.3015 48.5496C83.8782 48.0751 83.3809 47.7091 82.8079 47.4516C82.2383 47.194 81.6239 47.0652 80.9631 47.0652C80.2972 47.0652 79.6777 47.2008 79.1046 47.4719C78.535 47.7396 78.0394 48.109 77.6178 48.5835C77.1945 49.0545 76.8641 49.6171 76.6266 50.2711C76.3874 50.9218 76.2687 51.6301 76.2687 52.3926Z" fill="#004AAD"/>
<path d="M107.658 47.438C106.262 47.4617 105.016 47.7261 103.92 48.231C102.822 48.7377 102.036 49.4968 101.559 50.5083V61.2037H96.9678V43.5205H101.18V47.3025C101.5 46.6925 101.877 46.1468 102.309 45.6622C102.745 45.1793 103.213 44.7591 103.713 44.4016C104.218 44.0407 104.727 43.7645 105.242 43.5747C105.754 43.3815 106.253 43.2832 106.735 43.2832C106.986 43.2832 107.176 43.2832 107.3 43.2832C107.424 43.2832 107.542 43.2951 107.658 43.3171V47.438Z" fill="#004AAD"/>
<path d="M114.856 61.2037V47.9057H112.488V44.4626H114.856V43.3849C114.856 41.1804 115.393 39.4385 116.467 38.1592C117.54 36.8765 119.001 36.2343 120.851 36.2343C122.314 36.2343 123.79 36.5834 125.277 37.2781L124.348 40.6873C124.007 40.5077 123.601 40.3552 123.13 40.2332C122.662 40.1078 122.235 40.0435 121.849 40.0435C120.247 40.0435 119.447 41.1008 119.447 43.2155V44.4626H123.839V47.9057H119.447V61.2037H114.856Z" fill="#004AAD"/>
<path d="M140.731 60.2955C140.115 60.5632 139.361 60.8309 138.467 61.102C137.575 61.3731 136.639 61.5087 135.658 61.5087C135.02 61.5087 134.421 61.429 133.862 61.2715C133.301 61.1139 132.81 60.8614 132.389 60.5123C131.965 60.165 131.628 59.716 131.377 59.1636C131.124 58.6129 130.998 57.9436 130.998 57.1573V46.9975H128.637V43.5205H130.998V37.7865H135.589V43.5205H139.361V46.9975H135.589V55.6323C135.589 56.2661 135.755 56.71 136.085 56.9676C136.419 57.2251 136.825 57.3539 137.303 57.3539C137.785 57.3539 138.253 57.2776 138.708 57.1235C139.165 56.9659 139.534 56.8303 139.809 56.7168L140.731 60.2955Z" fill="#004AAD"/>
<path d="M153.45 61.5426C151.939 61.5426 150.465 61.307 149.024 60.8377C147.587 60.3632 146.355 59.6855 145.328 58.8043L147.035 55.9712C148.131 56.7405 149.2 57.32 150.243 57.7131C151.284 58.1062 152.318 58.3028 153.347 58.3028C154.259 58.3028 154.978 58.1333 155.501 57.7945C156.028 57.4556 156.293 56.9726 156.293 56.344C156.293 55.7171 155.983 55.2562 155.364 54.9613C154.748 54.6682 153.743 54.331 152.349 53.9515C151.182 53.6363 150.189 53.3313 149.368 53.0365C148.546 52.7433 147.883 52.4112 147.379 52.0401C146.878 51.6707 146.514 51.2437 146.285 50.7591C146.054 50.2762 145.94 49.6984 145.94 49.024C145.94 48.1209 146.116 47.3092 146.471 46.5908C146.828 45.8723 147.326 45.2606 147.964 44.754C148.601 44.2491 149.349 43.8593 150.208 43.5882C151.065 43.3171 151.998 43.1816 153.003 43.1816C154.352 43.1816 155.613 43.3747 156.789 43.7577C157.962 44.1372 159.043 44.7574 160.031 45.6148L158.179 48.3462C157.265 47.6735 156.379 47.1788 155.522 46.8619C154.663 46.5467 153.812 46.3875 152.968 46.3875C152.192 46.3875 151.54 46.5467 151.014 46.8619C150.49 47.1788 150.229 47.6854 150.229 48.3801C150.229 48.697 150.291 48.9562 150.415 49.1596C150.539 49.3595 150.738 49.5374 151.014 49.695C151.289 49.8543 151.649 50.0068 152.094 50.1559C152.538 50.3016 153.092 50.4524 153.753 50.61C154.987 50.9218 156.045 51.237 156.926 51.5521C157.807 51.869 158.527 52.2299 159.088 52.6366C159.647 53.0398 160.058 53.5041 160.32 54.0328C160.581 54.5615 160.712 55.1969 160.712 55.9373C160.712 57.6725 160.06 59.0416 158.757 60.0447C157.458 61.0444 155.689 61.5426 153.45 61.5426Z" fill="#004AAD"/>
<path d="M55.4151 66.0644H51.1526V66.7438H52.9233V71.7916H53.6461V66.7438H55.4151V66.0644Z" fill="#555555"/>
<path d="M59.8864 71.1036V69.1821H62.2284V68.5196H59.8864V66.7523H62.4453V66.0644H59.155V71.7916H62.5365V71.1036H59.8864Z" fill="#555555"/>
<path d="M69.0991 71.8814C70.4707 71.8814 71.5513 71.0714 71.8835 69.7786H71.1435C70.8372 70.6546 70.08 71.1782 69.0991 71.1782C67.8034 71.1782 66.8655 70.253 66.8655 68.9364C66.8655 67.6182 67.8034 66.6778 69.0991 66.6778C70.0559 66.6778 70.8028 67.1776 71.1108 68.0028H71.8594C71.5255 66.7676 70.4466 65.983 69.0991 65.983C67.3714 65.983 66.1169 67.2183 66.1169 68.9364C66.1169 70.6461 67.3714 71.8814 69.0991 71.8814Z" fill="#555555"/>
<path d="M79.4691 66.0644V68.5027H76.4611V66.0644H75.7297V71.7916H76.4611V69.1906H79.4691V71.7916H80.2005V66.0644H79.4691Z" fill="#555555"/>
<path d="M88.4745 66.0644V70.4818L85.217 66.0644H84.5527V71.7916H85.2669V67.325L88.5743 71.7916H89.1887V66.0644H88.4745Z" fill="#555555"/>
<path d="M96.1921 71.8899C97.9543 71.8899 99.2329 70.6224 99.2329 68.9364C99.2329 67.242 97.9543 65.9745 96.1921 65.9745C94.43 65.9745 93.1428 67.242 93.1428 68.9364C93.1428 70.6224 94.43 71.8899 96.1921 71.8899ZM96.1921 71.1867C94.8705 71.1867 93.8914 70.2124 93.8914 68.9364C93.8914 67.652 94.8705 66.6777 96.1921 66.6777C97.5137 66.6777 98.4946 67.6436 98.4946 68.9364C98.4946 70.2208 97.5137 71.1867 96.1921 71.1867Z" fill="#555555"/>
<path d="M103.927 71.1206V66.0644H103.196V71.7916H106.477V71.1206H103.927Z" fill="#555555"/>
<path d="M112.866 71.8899C114.629 71.8899 115.907 70.6224 115.907 68.9364C115.907 67.242 114.629 65.9745 112.866 65.9745C111.104 65.9745 109.817 67.242 109.817 68.9364C109.817 70.6224 111.104 71.8899 112.866 71.8899ZM112.866 71.1867C111.545 71.1867 110.566 70.2124 110.566 68.9364C110.566 67.652 111.545 66.6777 112.866 66.6777C114.188 66.6777 115.169 67.6436 115.169 68.9364C115.169 70.2208 114.188 71.1867 112.866 71.1867Z" fill="#555555"/>
<path d="M122.221 68.9517V69.6312H124.538C124.332 70.5648 123.492 71.1867 122.429 71.1867C121.116 71.1867 120.219 70.2615 120.219 68.9364C120.219 67.6182 121.14 66.6862 122.429 66.6862C123.41 66.6862 124.241 67.2335 124.489 68.0689H125.246C124.988 66.8421 123.807 65.983 122.412 65.983C120.717 65.983 119.479 67.2335 119.479 68.9364C119.479 70.6377 120.717 71.8899 122.429 71.8899C124.107 71.8899 125.304 70.6783 125.337 68.9517H122.221Z" fill="#555555"/>
<path d="M129.266 71.7916H129.997V66.0644H129.266V71.7916Z" fill="#555555"/>
<path d="M135.083 71.1036V69.1821H137.425V68.5196H135.083V66.7523H137.642V66.0644H134.352V71.7916H137.733V71.1036H135.083Z" fill="#555555"/>
<path d="M143.449 71.8644C144.604 71.8644 145.502 71.251 145.502 70.1717C145.502 68.9771 144.472 68.7399 143.558 68.5196C142.809 68.3468 142.136 68.1841 142.136 67.5622C142.136 67.0132 142.668 66.6862 143.374 66.6862C144.081 66.6862 144.613 67.0539 144.613 67.6927H145.335C145.335 66.654 144.595 65.9983 143.391 65.9983C142.186 65.9983 141.414 66.5964 141.414 67.586C141.414 68.7314 142.401 68.9686 143.3 69.1736C144.055 69.3533 144.745 69.5091 144.745 70.1801C144.745 70.7851 144.172 71.1612 143.441 71.1612C142.635 71.1612 142.045 70.7444 142.045 70.0327H141.297C141.297 71.1612 142.169 71.8644 143.449 71.8644Z" fill="#555555"/>
<defs>
<linearGradient id="paint0_linear_11_11" x1="40.9466" y1="47.9555" x2="45.4728" y2="48.909" gradientUnits="userSpaceOnUse">
<stop stop-color="#2771E0"/>
<stop offset="0.0625" stop-color="#2771E0"/>
<stop offset="0.09375" stop-color="#2771E0"/>
<stop offset="0.109375" stop-color="#2870DF"/>
<stop offset="0.125" stop-color="#286FDE"/>
<stop offset="0.140625" stop-color="#296EDE"/>
<stop offset="0.15625" stop-color="#296DDD"/>
<stop offset="0.171875" stop-color="#2A6DDD"/>
<stop offset="0.1875" stop-color="#2A6CDC"/>
<stop offset="0.203125" stop-color="#2B6BDB"/>
<stop offset="0.21875" stop-color="#2B6ADB"/>
<stop offset="0.234375" stop-color="#2C6ADA"/>
<stop offset="0.25" stop-color="#2C69DA"/>
<stop offset="0.257812" stop-color="#2D68D9"/>
<stop offset="0.265625" stop-color="#2D68D9"/>
<stop offset="0.273438" stop-color="#2E67D8"/>
<stop offset="0.28125" stop-color="#2E66D8"/>
<stop offset="0.289062" stop-color="#2E66D7"/>
<stop offset="0.296875" stop-color="#2F65D7"/>
<stop offset="0.304688" stop-color="#2F64D6"/>
<stop offset="0.3125" stop-color="#2F64D6"/>
<stop offset="0.320312" stop-color="#3063D6"/>
<stop offset="0.328125" stop-color="#3062D5"/>
<stop offset="0.335937" stop-color="#3162D5"/>
<stop offset="0.34375" stop-color="#3161D4"/>
<stop offset="0.351562" stop-color="#3160D4"/>
<stop offset="0.359375" stop-color="#3260D3"/>
<stop offset="0.367188" stop-color="#325FD3"/>
<stop offset="0.375" stop-color="#335ED3"/>
<stop offset="0.382813" stop-color="#335ED2"/>
<stop offset="0.390625" stop-color="#335DD2"/>
<stop offset="0.398437" stop-color="#345CD1"/>
<stop offset="0.40625" stop-color="#345CD1"/>
<stop offset="0.414062" stop-color="#355BD0"/>
<stop offset="0.421875" stop-color="#355AD0"/>
<stop offset="0.429688" stop-color="#355ACF"/>
<stop offset="0.4375" stop-color="#3659CF"/>
<stop offset="0.445313" stop-color="#3658CF"/>
<stop offset="0.453125" stop-color="#3657CE"/>
<stop offset="0.460938" stop-color="#3757CE"/>
<stop offset="0.46875" stop-color="#3756CD"/>
<stop offset="0.476562" stop-color="#3855CD"/>
<stop offset="0.484375" stop-color="#3855CC"/>
<stop offset="0.492188" stop-color="#3854CC"/>
<stop offset="0.5" stop-color="#3953CC"/>
<stop offset="0.507813" stop-color="#3953CB"/>
<stop offset="0.515625" stop-color="#3A52CB"/>
<stop offset="0.523438" stop-color="#3A51CA"/>
<stop offset="0.53125" stop-color="#3A51CA"/>
<stop offset="0.539062" stop-color="#3B50C9"/>
<stop offset="0.546875" stop-color="#3B4FC9"/>
<stop offset="0.554688" stop-color="#3B4FC8"/>
<stop offset="0.5625" stop-color="#3C4EC8"/>
<stop offset="0.570312" stop-color="#3C4DC7"/>
<stop offset="0.578125" stop-color="#3D4CC7"/>
<stop offset="0.585937" stop-color="#3D4CC6"/>
<stop offset="0.59375" stop-color="#3E4BC6"/>
<stop offset="0.601562" stop-color="#3E4AC5"/>
<stop offset="0.609375" stop-color="#3F49C4"/>
<stop offset="0.617188" stop-color="#3F48C4"/>
<stop offset="0.625" stop-color="#4047C3"/>
<stop offset="0.632812" stop-color="#4047C3"/>
<stop offset="0.640625" stop-color="#4146C2"/>
<stop offset="0.648438" stop-color="#4145C1"/>
<stop offset="0.65625" stop-color="#4244C1"/>
<stop offset="0.664062" stop-color="#4243C0"/>
<stop offset="0.671875" stop-color="#4342C0"/>
<stop offset="0.679687" stop-color="#4342BF"/>
<stop offset="0.6875" stop-color="#4441BE"/>
<stop offset="0.695312" stop-color="#4440BE"/>
<stop offset="0.703125" stop-color="#453FBD"/>
<stop offset="0.710937" stop-color="#453EBD"/>
<stop offset="0.71875" stop-color="#463DBC"/>
<stop offset="0.726562" stop-color="#463DBB"/>
<stop offset="0.734375" stop-color="#473CBB"/>
<stop offset="0.742188" stop-color="#473BBA"/>
<stop offset="0.75" stop-color="#483ABA"/>
<stop offset="0.757812" stop-color="#4839B9"/>
<stop offset="0.765625" stop-color="#4938B8"/>
<stop offset="0.773438" stop-color="#4938B8"/>
<stop offset="0.78125" stop-color="#4A37B7"/>
<stop offset="0.789062" stop-color="#4A36B7"/>
<stop offset="0.796875" stop-color="#4B35B6"/>
<stop offset="0.804687" stop-color="#4B34B5"/>
<stop offset="0.8125" stop-color="#4C33B5"/>
<stop offset="0.820312" stop-color="#4C32B4"/>
<stop offset="0.828125" stop-color="#4D32B4"/>
<stop offset="0.835938" stop-color="#4D31B3"/>
<stop offset="0.84375" stop-color="#4E30B3"/>
<stop offset="0.851562" stop-color="#4E2FB2"/>
<stop offset="0.859375" stop-color="#4F2EB1"/>
<stop offset="0.867188" stop-color="#4F2DB1"/>
<stop offset="0.875" stop-color="#502DB0"/>
<stop offset="0.882812" stop-color="#502CB0"/>
<stop offset="0.890625" stop-color="#512BAF"/>
<stop offset="0.898437" stop-color="#512AAE"/>
<stop offset="0.90625" stop-color="#5229AE"/>
<stop offset="0.914062" stop-color="#5228AD"/>
<stop offset="0.921875" stop-color="#5328AD"/>
<stop offset="0.9375" stop-color="#5327AC"/>
<stop offset="1" stop-color="#5327AC"/>
</linearGradient>
<linearGradient id="paint1_linear_11_11" x1="40.7923" y1="67.555" x2="45.3398" y2="68.513" gradientUnits="userSpaceOnUse">
<stop stop-color="#2771E0"/>
<stop offset="0.0625" stop-color="#2771E0"/>
<stop offset="0.09375" stop-color="#2771E0"/>
<stop offset="0.109375" stop-color="#2870DF"/>
<stop offset="0.125" stop-color="#286FDF"/>
<stop offset="0.140625" stop-color="#296EDE"/>
<stop offset="0.15625" stop-color="#296EDD"/>
<stop offset="0.171875" stop-color="#2A6DDD"/>
<stop offset="0.1875" stop-color="#2A6CDC"/>
<stop offset="0.203125" stop-color="#2B6BDB"/>
<stop offset="0.21875" stop-color="#2B6ADB"/>
<stop offset="0.234375" stop-color="#2C6ADA"/>
<stop offset="0.25" stop-color="#2C69DA"/>
<stop offset="0.257812" stop-color="#2D68D9"/>
<stop offset="0.265625" stop-color="#2D68D9"/>
<stop offset="0.273438" stop-color="#2D67D8"/>
<stop offset="0.28125" stop-color="#2E66D8"/>
<stop offset="0.289063" stop-color="#2E66D8"/>
<stop offset="0.296875" stop-color="#2F65D7"/>
<stop offset="0.304688" stop-color="#2F64D7"/>
<stop offset="0.3125" stop-color="#2F64D6"/>
<stop offset="0.320313" stop-color="#3063D6"/>
<stop offset="0.328125" stop-color="#3062D5"/>
<stop offset="0.335938" stop-color="#3162D5"/>
<stop offset="0.34375" stop-color="#3161D4"/>
<stop offset="0.351563" stop-color="#3160D4"/>
<stop offset="0.359375" stop-color="#3260D4"/>
<stop offset="0.367188" stop-color="#325FD3"/>
<stop offset="0.375" stop-color="#325ED3"/>
<stop offset="0.382813" stop-color="#335ED2"/>
<stop offset="0.390625" stop-color="#335DD2"/>
<stop offset="0.398438" stop-color="#345CD1"/>
<stop offset="0.40625" stop-color="#345CD1"/>
<stop offset="0.414063" stop-color="#345BD0"/>
<stop offset="0.421875" stop-color="#355AD0"/>
<stop offset="0.429688" stop-color="#355AD0"/>
<stop offset="0.4375" stop-color="#3659CF"/>
<stop offset="0.445312" stop-color="#3658CF"/>
<stop offset="0.453125" stop-color="#3658CE"/>
<stop offset="0.460938" stop-color="#3757CE"/>
<stop offset="0.46875" stop-color="#3756CD"/>
<stop offset="0.476563" stop-color="#3856CD"/>
<stop offset="0.484375" stop-color="#3855CC"/>
<stop offset="0.492188" stop-color="#3854CC"/>
<stop offset="0.5" stop-color="#3954CC"/>
<stop offset="0.507812" stop-color="#3953CB"/>
<stop offset="0.515625" stop-color="#3952CB"/>
<stop offset="0.523438" stop-color="#3A52CA"/>
<stop offset="0.53125" stop-color="#3A51CA"/>
<stop offset="0.539063" stop-color="#3B50C9"/>
<stop offset="0.546875" stop-color="#3B50C9"/>
<stop offset="0.554688" stop-color="#3B4FC9"/>
<stop offset="0.5625" stop-color="#3C4EC8"/>
<stop offset="0.570313" stop-color="#3C4EC8"/>
<stop offset="0.578125" stop-color="#3D4DC7"/>
<stop offset="0.585938" stop-color="#3D4CC6"/>
<stop offset="0.59375" stop-color="#3E4BC6"/>
<stop offset="0.601563" stop-color="#3E4AC5"/>
<stop offset="0.609375" stop-color="#3F49C5"/>
<stop offset="0.617188" stop-color="#3F48C4"/>
<stop offset="0.625" stop-color="#4048C3"/>
<stop offset="0.632813" stop-color="#4047C3"/>
<stop offset="0.640625" stop-color="#4146C2"/>
<stop offset="0.648438" stop-color="#4145C2"/>
<stop offset="0.65625" stop-color="#4244C1"/>
<stop offset="0.664062" stop-color="#4243C0"/>
<stop offset="0.671875" stop-color="#4343C0"/>
<stop offset="0.679688" stop-color="#4342BF"/>
<stop offset="0.6875" stop-color="#4441BF"/>
<stop offset="0.695312" stop-color="#4440BE"/>
<stop offset="0.703125" stop-color="#453FBD"/>
<stop offset="0.710938" stop-color="#453EBD"/>
<stop offset="0.71875" stop-color="#463DBC"/>
<stop offset="0.726562" stop-color="#463DBC"/>
<stop offset="0.734375" stop-color="#473CBB"/>
<stop offset="0.742188" stop-color="#473BBA"/>
<stop offset="0.75" stop-color="#483ABA"/>
<stop offset="0.757812" stop-color="#4839B9"/>
<stop offset="0.765625" stop-color="#4938B9"/>
<stop offset="0.773438" stop-color="#4938B8"/>
<stop offset="0.78125" stop-color="#4A37B7"/>
<stop offset="0.789063" stop-color="#4A36B7"/>
<stop offset="0.796875" stop-color="#4B35B6"/>
<stop offset="0.804688" stop-color="#4B34B6"/>
<stop offset="0.8125" stop-color="#4C33B5"/>
<stop offset="0.820313" stop-color="#4C33B4"/>
<stop offset="0.828125" stop-color="#4D32B4"/>
<stop offset="0.835938" stop-color="#4D31B3"/>
<stop offset="0.84375" stop-color="#4E30B3"/>
<stop offset="0.851562" stop-color="#4E2FB2"/>
<stop offset="0.859375" stop-color="#4F2EB1"/>
<stop offset="0.867188" stop-color="#4F2DB1"/>
<stop offset="0.875" stop-color="#502DB0"/>
<stop offset="0.882812" stop-color="#502CB0"/>
<stop offset="0.890625" stop-color="#512BAF"/>
<stop offset="0.898438" stop-color="#512AAE"/>
<stop offset="0.90625" stop-color="#5229AE"/>
<stop offset="0.914062" stop-color="#5228AD"/>
<stop offset="0.921875" stop-color="#5328AD"/>
<stop offset="0.9375" stop-color="#5327AC"/>
<stop offset="1" stop-color="#5327AC"/>
</linearGradient>
<linearGradient id="paint2_linear_11_11" x1="14.8231" y1="28.5638" x2="33.5746" y2="86.2404" gradientUnits="userSpaceOnUse">
<stop stop-color="#0091D4"/>
<stop offset="0.125" stop-color="#0091D4"/>
<stop offset="0.1875" stop-color="#0091D4"/>
<stop offset="0.203125" stop-color="#0092D4"/>
<stop offset="0.21875" stop-color="#0092D4"/>
<stop offset="0.234375" stop-color="#0093D4"/>
<stop offset="0.25" stop-color="#0094D3"/>
<stop offset="0.265625" stop-color="#0094D3"/>
<stop offset="0.28125" stop-color="#0095D3"/>
<stop offset="0.296875" stop-color="#0096D3"/>
<stop offset="0.3125" stop-color="#0096D3"/>
<stop offset="0.328125" stop-color="#0097D3"/>
<stop offset="0.33477" stop-color="#0098D3"/>
<stop offset="0.34375" stop-color="#0098D2"/>
<stop offset="0.359375" stop-color="#0099D2"/>
<stop offset="0.375" stop-color="#0099D2"/>
<stop offset="0.390625" stop-color="#009AD2"/>
<stop offset="0.398438" stop-color="#009BD2"/>
<stop offset="0.40625" stop-color="#009BD2"/>
<stop offset="0.414062" stop-color="#009CD2"/>
<stop offset="0.421875" stop-color="#009CD2"/>
<stop offset="0.429688" stop-color="#009DD1"/>
<stop offset="0.4375" stop-color="#009ED1"/>
<stop offset="0.445312" stop-color="#009ED1"/>
<stop offset="0.453125" stop-color="#009FD1"/>
<stop offset="0.460938" stop-color="#009FD1"/>
<stop offset="0.46875" stop-color="#00A0D1"/>
<stop offset="0.476562" stop-color="#00A1D1"/>
<stop offset="0.484375" stop-color="#00A1D0"/>
<stop offset="0.492188" stop-color="#00A2D0"/>
<stop offset="0.5" stop-color="#00A2D0"/>
<stop offset="0.507812" stop-color="#00A3D0"/>
<stop offset="0.515625" stop-color="#00A4D0"/>
<stop offset="0.523438" stop-color="#00A4D0"/>
<stop offset="0.53125" stop-color="#00A5D0"/>
<stop offset="0.539063" stop-color="#00A5CF"/>
<stop offset="0.546875" stop-color="#00A6CF"/>
<stop offset="0.554688" stop-color="#00A7CF"/>
<stop offset="0.5625" stop-color="#00A7CF"/>
<stop offset="0.570312" stop-color="#00A8CF"/>
<stop offset="0.578125" stop-color="#00A8CF"/>
<stop offset="0.585937" stop-color="#00A9CF"/>
<stop offset="0.59375" stop-color="#00AACE"/>
<stop offset="0.601563" stop-color="#00AACE"/>
<stop offset="0.609375" stop-color="#00ABCE"/>
<stop offset="0.617188" stop-color="#00ABCE"/>
<stop offset="0.625" stop-color="#00ACCE"/>
<stop offset="0.632812" stop-color="#00ACCE"/>
<stop offset="0.640625" stop-color="#00ADCE"/>
<stop offset="0.648437" stop-color="#00AECD"/>
<stop offset="0.65625" stop-color="#00AECD"/>
<stop offset="0.664063" stop-color="#00AFCD"/>
<stop offset="0.66523" stop-color="#00AFCD"/>
<stop offset="0.671875" stop-color="#00B0CD"/>
<stop offset="0.679688" stop-color="#00B0CD"/>
<stop offset="0.6875" stop-color="#00B1CD"/>
<stop offset="0.695312" stop-color="#00B1CD"/>
<stop offset="0.703125" stop-color="#00B2CD"/>
<stop offset="0.710937" stop-color="#00B2CC"/>
<stop offset="0.71875" stop-color="#00B3CC"/>
<stop offset="0.726563" stop-color="#00B4CC"/>
<stop offset="0.734375" stop-color="#00B4CC"/>
<stop offset="0.742188" stop-color="#00B5CC"/>
<stop offset="0.75" stop-color="#00B6CC"/>
<stop offset="0.757812" stop-color="#00B6CB"/>
<stop offset="0.765625" stop-color="#00B7CB"/>
<stop offset="0.773437" stop-color="#00B8CB"/>
<stop offset="0.78125" stop-color="#00B8CB"/>
<stop offset="0.789063" stop-color="#00B9CB"/>
<stop offset="0.796875" stop-color="#00BACA"/>
<stop offset="0.804688" stop-color="#00BACA"/>
<stop offset="0.8125" stop-color="#00BBCA"/>
<stop offset="0.820312" stop-color="#00BCCA"/>
<stop offset="0.828125" stop-color="#00BCCA"/>
<stop offset="0.835937" stop-color="#00BDCA"/>
<stop offset="0.84375" stop-color="#00BEC9"/>
<stop offset="0.851563" stop-color="#00BEC9"/>
<stop offset="0.859375" stop-color="#00BFC9"/>
<stop offset="0.875" stop-color="#00BFC9"/>
<stop offset="1" stop-color="#00BFC9"/>
</linearGradient>
<linearGradient id="paint3_linear_11_11" x1="41.6694" y1="66.2847" x2="13.5833" y2="49.6983" gradientUnits="userSpaceOnUse">
<stop stop-color="#00B6F3"/>
<stop offset="0.0405591" stop-color="#00B6F3"/>
<stop offset="0.125" stop-color="#00B6F3"/>
<stop offset="0.15625" stop-color="#00B6F3"/>
<stop offset="0.171875" stop-color="#00B6F3"/>
<stop offset="0.1875" stop-color="#00B6F2"/>
<stop offset="0.203125" stop-color="#00B6F1"/>
<stop offset="0.21875" stop-color="#00B6F1"/>
<stop offset="0.234375" stop-color="#00B6F0"/>
<stop offset="0.25" stop-color="#00B6F0"/>
<stop offset="0.265625" stop-color="#00B6EF"/>
<stop offset="0.28125" stop-color="#00B6EF"/>
<stop offset="0.296875" stop-color="#00B6EE"/>
<stop offset="0.3125" stop-color="#00B5EE"/>
<stop offset="0.328125" stop-color="#00B5ED"/>
<stop offset="0.34375" stop-color="#00B5EC"/>
<stop offset="0.359375" stop-color="#00B5EC"/>
<stop offset="0.375" stop-color="#00B5EB"/>
<stop offset="0.390625" stop-color="#00B5EB"/>
<stop offset="0.40625" stop-color="#00B5EA"/>
<stop offset="0.421875" stop-color="#00B5E9"/>
<stop offset="0.4375" stop-color="#00B5E8"/>
<stop offset="0.453125" stop-color="#00B5E7"/>
<stop offset="0.46875" stop-color="#00B4E6"/>
<stop offset="0.484375" stop-color="#00B4E5"/>
<stop offset="0.5" stop-color="#00B4E4"/>
<stop offset="0.515625" stop-color="#00B4E3"/>
<stop offset="0.53125" stop-color="#00B4E2"/>
<stop offset="0.546875" stop-color="#00B4E1"/>
<stop offset="0.5625" stop-color="#00B4E0"/>
<stop offset="0.578125" stop-color="#00B3DF"/>
<stop offset="0.59375" stop-color="#00B3DE"/>
<stop offset="0.609375" stop-color="#00B3DD"/>
<stop offset="0.625" stop-color="#00B3DC"/>
<stop offset="0.640625" stop-color="#00B3DB"/>
<stop offset="0.65625" stop-color="#00B3DA"/>
<stop offset="0.671875" stop-color="#00B2D9"/>
<stop offset="0.6875" stop-color="#00B2D8"/>
<stop offset="0.703125" stop-color="#00B2D7"/>
<stop offset="0.71875" stop-color="#00B2D6"/>
<stop offset="0.734375" stop-color="#00B2D5"/>
<stop offset="0.75" stop-color="#00B2D4"/>
<stop offset="0.765625" stop-color="#00B1D3"/>
<stop offset="0.78125" stop-color="#00B1D2"/>
<stop offset="0.796875" stop-color="#00B1D1"/>
<stop offset="0.804688" stop-color="#00B1D1"/>
<stop offset="0.8125" stop-color="#00B1D0"/>
<stop offset="0.820312" stop-color="#00B1D0"/>
<stop offset="0.828125" stop-color="#00B1CF"/>
<stop offset="0.835938" stop-color="#00B1CF"/>
<stop offset="0.84375" stop-color="#00B1CE"/>
<stop offset="0.851562" stop-color="#00B1CD"/>
<stop offset="0.859375" stop-color="#00B1CD"/>
<stop offset="0.867188" stop-color="#00B0CC"/>
<stop offset="0.875" stop-color="#00B0CC"/>
<stop offset="0.882813" stop-color="#00B0CB"/>
<stop offset="0.890625" stop-color="#00B0CB"/>
<stop offset="0.898438" stop-color="#00B0CA"/>
<stop offset="0.90625" stop-color="#00B0C9"/>
<stop offset="0.9375" stop-color="#00B0C9"/>
<stop offset="0.959441" stop-color="#00B0C9"/>
<stop offset="1" stop-color="#00B0C9"/>
</linearGradient>
<linearGradient id="paint4_linear_11_11" x1="11.8692" y1="64.2704" x2="28.8706" y2="67.852" gradientUnits="userSpaceOnUse">
<stop stop-color="#2771E0"/>
<stop offset="0.125" stop-color="#2771E0"/>
<stop offset="0.15625" stop-color="#2771E0"/>
<stop offset="0.171875" stop-color="#2770DF"/>
<stop offset="0.1875" stop-color="#2870DF"/>
<stop offset="0.203125" stop-color="#286FDE"/>
<stop offset="0.21875" stop-color="#296EDE"/>
<stop offset="0.234375" stop-color="#296DDD"/>
<stop offset="0.25" stop-color="#2A6DDD"/>
<stop offset="0.265625" stop-color="#2A6CDC"/>
<stop offset="0.28125" stop-color="#2B6BDC"/>
<stop offset="0.296875" stop-color="#2B6BDB"/>
<stop offset="0.3125" stop-color="#2C6ADA"/>
<stop offset="0.328125" stop-color="#2C69DA"/>
<stop offset="0.34375" stop-color="#2D68D9"/>
<stop offset="0.351562" stop-color="#2D68D9"/>
<stop offset="0.359375" stop-color="#2D67D8"/>
<stop offset="0.367188" stop-color="#2E67D8"/>
<stop offset="0.375" stop-color="#2E66D8"/>
<stop offset="0.382812" stop-color="#2E65D7"/>
<stop offset="0.390625" stop-color="#2F65D7"/>
<stop offset="0.398438" stop-color="#2F64D6"/>
<stop offset="0.40625" stop-color="#2F64D6"/>
<stop offset="0.414062" stop-color="#3063D6"/>
<stop offset="0.421875" stop-color="#3062D5"/>
<stop offset="0.429688" stop-color="#3162D5"/>
<stop offset="0.4375" stop-color="#3161D4"/>
<stop offset="0.445312" stop-color="#3161D4"/>
<stop offset="0.453125" stop-color="#3260D4"/>
<stop offset="0.460938" stop-color="#325FD3"/>
<stop offset="0.46875" stop-color="#325FD3"/>
<stop offset="0.476562" stop-color="#335ED2"/>
<stop offset="0.484375" stop-color="#335ED2"/>
<stop offset="0.492188" stop-color="#335DD2"/>
<stop offset="0.5" stop-color="#345CD1"/>
<stop offset="0.507812" stop-color="#345CD1"/>
<stop offset="0.515625" stop-color="#345BD1"/>
<stop offset="0.523438" stop-color="#355AD0"/>
<stop offset="0.53125" stop-color="#355AD0"/>
<stop offset="0.539063" stop-color="#3559CF"/>
<stop offset="0.546875" stop-color="#3659CF"/>
<stop offset="0.554688" stop-color="#3658CF"/>
<stop offset="0.5625" stop-color="#3657CE"/>
<stop offset="0.570313" stop-color="#3757CE"/>
<stop offset="0.578125" stop-color="#3756CD"/>
<stop offset="0.585938" stop-color="#3856CD"/>
<stop offset="0.59375" stop-color="#3855CD"/>
<stop offset="0.601563" stop-color="#3854CC"/>
<stop offset="0.609375" stop-color="#3954CC"/>
<stop offset="0.617188" stop-color="#3953CB"/>
<stop offset="0.625" stop-color="#3953CB"/>
<stop offset="0.632813" stop-color="#3A52CB"/>
<stop offset="0.640625" stop-color="#3A51CA"/>
<stop offset="0.648438" stop-color="#3A51CA"/>
<stop offset="0.65625" stop-color="#3B50C9"/>
<stop offset="0.664063" stop-color="#3B50C9"/>
<stop offset="0.671875" stop-color="#3B4FC9"/>
<stop offset="0.679688" stop-color="#3C4EC8"/>
<stop offset="0.6875" stop-color="#3C4EC8"/>
<stop offset="0.695313" stop-color="#3D4DC7"/>
<stop offset="0.703125" stop-color="#3D4CC7"/>
<stop offset="0.710938" stop-color="#3D4BC6"/>
<stop offset="0.71875" stop-color="#3E4BC6"/>
<stop offset="0.726563" stop-color="#3E4AC5"/>
<stop offset="0.734375" stop-color="#3F49C4"/>
<stop offset="0.742188" stop-color="#3F48C4"/>
<stop offset="0.75" stop-color="#4048C3"/>
<stop offset="0.757813" stop-color="#4047C3"/>
<stop offset="0.765625" stop-color="#4146C2"/>
<stop offset="0.773438" stop-color="#4145C2"/>
<stop offset="0.78125" stop-color="#4145C1"/>
<stop offset="0.789063" stop-color="#4244C1"/>
<stop offset="0.796875" stop-color="#4243C0"/>
<stop offset="0.804688" stop-color="#4342C0"/>
<stop offset="0.8125" stop-color="#4342BF"/>
<stop offset="0.820313" stop-color="#4441BE"/>
<stop offset="0.828125" stop-color="#4440BE"/>
<stop offset="0.835938" stop-color="#453FBD"/>
<stop offset="0.84375" stop-color="#453FBD"/>
<stop offset="0.851563" stop-color="#453EBC"/>
<stop offset="0.859375" stop-color="#463DBC"/>
<stop offset="0.867188" stop-color="#463CBB"/>
<stop offset="0.875" stop-color="#473BBB"/>
<stop offset="0.882813" stop-color="#473BBA"/>
<stop offset="0.890625" stop-color="#483ABA"/>
<stop offset="0.898438" stop-color="#4839B9"/>
<stop offset="0.90625" stop-color="#4938B9"/>
<stop offset="0.914063" stop-color="#4938B8"/>
<stop offset="0.921875" stop-color="#4A37B7"/>
<stop offset="0.929688" stop-color="#4A36B7"/>
<stop offset="0.9375" stop-color="#4A35B6"/>
<stop offset="0.945313" stop-color="#4B35B6"/>
<stop offset="0.953125" stop-color="#4B34B5"/>
<stop offset="0.960938" stop-color="#4C33B5"/>
<stop offset="0.96875" stop-color="#4C32B4"/>
<stop offset="0.976562" stop-color="#4D32B4"/>
<stop offset="0.984375" stop-color="#4D31B3"/>
<stop offset="0.992188" stop-color="#4E30B3"/>
<stop offset="1" stop-color="#4E2FB2"/>
</linearGradient>
</defs>
</svg>
