<svg width="40" height="28" viewBox="0 0 40 28" fill="none" xmlns="http://www.w3.org/2000/svg">
<path d="M2.62775 0.331299C1.24765 0.346181 0.825852 1.38831 0.809765 2.50008V17.0803H28.9339V11.9521C28.9339 10.8968 29.8006 10.0251 30.8559 10.0251H34.3891V2.50008C34.3171 1.23173 33.7178 0.356505 32.5649 0.331299H2.62775ZM6.77113 2.46624C7.30155 2.99665 7.62939 3.73438 7.62938 4.54107C7.62936 5.34774 7.30155 6.08426 6.77113 6.61465C6.24073 7.14504 5.49923 7.47664 4.69255 7.47664C3.88587 7.47664 3.14938 7.14504 2.61897 6.61465C2.37018 6.36445 2.37018 5.9603 2.61897 5.71008C2.86962 5.45878 3.27669 5.45878 3.52734 5.71008C3.82702 6.0098 4.23256 6.1937 4.69255 6.1937C5.15254 6.1937 5.56306 6.00972 5.86277 5.71008C6.16244 5.41041 6.34513 5.00109 6.34514 4.54107C6.34515 4.08109 6.16246 3.67054 5.86277 3.37087C5.61399 3.12065 5.61399 2.71646 5.86277 2.46624C6.16717 2.15899 6.495 2.21119 6.77113 2.46624ZM16.9147 3.04887H18.2829C18.8851 3.04887 19.3867 3.55059 19.3867 4.15271V4.96208C19.3867 5.0164 19.3962 5.00766 19.4243 5.01975C19.4523 5.03278 19.4478 5.04153 19.4857 5.00488L20.0595 4.4323C20.4853 4.00649 21.1962 4.00649 21.6219 4.4323L22.5879 5.39824C23.0136 5.82395 23.0136 6.53493 22.5879 6.96066L22.0153 7.53324C21.9774 7.57138 21.9938 7.57157 22.0055 7.59966C22.0172 7.62775 22.0045 7.63855 22.0581 7.63855H22.8725C23.4746 7.63855 23.975 8.13898 23.975 8.74108V10.1093C23.975 10.7114 23.4746 11.2131 22.8725 11.2131H22.0581C22.0045 11.2131 22.0171 11.2187 22.0055 11.2471C21.9937 11.2752 21.9776 11.2758 22.0153 11.3135L22.5879 11.8861C23.0136 12.3119 23.0136 13.0227 22.5879 13.4485L21.6219 14.4145C21.1962 14.8403 20.4853 14.8403 20.0595 14.4145L19.4857 13.8419C19.4479 13.8032 19.4523 13.8148 19.4243 13.827C19.3963 13.8401 19.3867 13.8326 19.3867 13.8847V14.6941C19.3867 15.2962 18.885 15.7979 18.2829 15.7979H16.9147C16.3126 15.7979 15.8109 15.2962 15.8109 14.6941V13.8847C15.8109 13.8304 15.8015 13.8391 15.7733 13.827C15.7453 13.814 15.7448 13.8053 15.7069 13.8419L15.1343 14.4145C14.7086 14.8403 14.0027 14.8403 13.577 14.4145L12.606 13.4478C12.1802 13.0221 12.1803 12.3112 12.606 11.8855L13.1785 11.3129C13.2166 11.2747 13.204 11.2745 13.1924 11.2464C13.1807 11.2182 13.1945 11.2126 13.141 11.2126H12.3266C11.7245 11.2126 11.2228 10.7109 11.2228 10.1088V8.74062C11.2228 8.1385 11.7245 7.63804 12.3266 7.63804H13.141C13.1946 7.63804 13.1807 7.62501 13.1924 7.59915C13.204 7.57106 13.2164 7.57049 13.1785 7.53273L12.606 6.96032C12.1802 6.53459 12.1803 5.82371 12.606 5.39796L13.577 4.4319C14.0027 4.00609 14.7086 4.00609 15.1343 4.4319L15.7069 5.00448C15.7448 5.04318 15.7453 5.03169 15.7733 5.01941C15.8013 5.00639 15.8109 5.01382 15.8109 4.96174V4.15231C15.8109 3.55019 16.3126 3.04887 16.9147 3.04887ZM11.0711 3.85949V5.2277C11.0711 5.82981 10.5707 6.33148 9.96857 6.33148H9.15417C9.10062 6.33148 9.11318 6.33709 9.10156 6.36407C9.08992 6.39216 9.07373 6.39267 9.1115 6.43043L9.68408 7.00432C10.1097 7.43005 10.1097 8.14093 9.68408 8.56668L8.71808 9.53268C8.29235 9.95847 7.58143 9.95847 7.15569 9.53268L6.58186 8.9601C6.54409 8.9214 6.5485 8.93295 6.52047 8.94522C6.49249 8.95825 6.48289 8.94707 6.48289 9.00177V9.81238C6.48289 10.4145 5.98118 10.915 5.37908 10.915H4.01089C3.6566 10.9164 3.36827 10.6302 3.36689 10.276C3.36818 9.92167 3.6566 9.63563 4.01089 9.63702H5.1999V9.00177C5.19991 8.43114 5.56843 7.95168 6.02809 7.76134C6.48774 7.57102 7.08799 7.65106 7.49149 8.05456L7.93628 8.5006L8.65169 7.78519L8.2069 7.34039C7.80343 6.93691 7.72207 6.33664 7.91247 5.87698C8.10287 5.41733 8.5835 5.04759 9.1541 5.04757H9.78808V3.85978C9.7868 3.50549 10.0728 3.21715 10.428 3.21578C10.7833 3.21435 11.0725 3.50324 11.0711 3.85949ZM17.0952 4.33312V4.96208C17.0952 5.53269 16.7254 6.01337 16.2657 6.20369C15.8061 6.39403 15.2058 6.31791 14.8023 5.91428L14.3575 5.46949L13.6384 6.1799L14.0882 6.62969C14.4916 7.0332 14.5667 7.62845 14.3763 8.08811C14.1859 8.54779 13.7116 8.91627 13.141 8.91627H12.5057V9.9299H13.141C13.7116 9.92992 14.1859 10.2997 14.3763 10.7593C14.5667 11.2189 14.4916 11.8179 14.0882 12.2214L13.6421 12.6675L14.3575 13.3817L14.8023 12.9369C15.2058 12.5334 15.8061 12.4533 16.2657 12.6437C16.7254 12.834 17.0951 13.3135 17.0952 13.8841V14.518H18.1037V13.8841C18.1038 13.3135 18.4723 12.834 18.9319 12.6437C19.3916 12.4533 19.9918 12.5334 20.3953 12.9369L20.8401 13.3817L21.5555 12.6675L21.1107 12.2214C20.7073 11.8179 20.6259 11.219 20.8163 10.7593C21.0067 10.2997 21.4873 9.92992 22.0579 9.9299H22.6919V8.91627H22.0579C21.4873 8.91627 21.0067 8.54779 20.8163 8.08811C20.6259 7.62845 20.7073 7.0332 21.1107 6.62969L21.5555 6.1799L20.8451 5.46949L20.3953 5.91428C19.9918 6.31782 19.3916 6.39403 18.9319 6.20369C18.4723 6.01337 18.1037 5.53269 18.1037 4.96208V4.33312H17.0952ZM17.5963 6.48686C19.2097 6.48686 20.5332 7.8103 20.5331 9.42368C20.5331 11.037 19.2097 12.3593 17.5963 12.3593C15.983 12.3593 14.6658 11.037 14.6658 9.42368C14.6657 7.8103 15.9829 6.48686 17.5963 6.48686ZM17.5963 7.77111C16.6763 7.77111 15.9437 8.50366 15.9437 9.42368C15.9437 10.3437 16.6763 11.0763 17.5963 11.0763C18.5163 11.0763 19.2489 10.3437 19.2489 9.42368C19.2489 8.50366 18.5163 7.77111 17.5963 7.77111ZM30.8559 11.3081C30.494 11.3081 30.2119 11.5902 30.2119 11.9521V23.4964H39.1953V11.9521C39.1953 11.5902 38.9182 11.3081 38.5563 11.3081H30.8559ZM35.6483 16.2759L35.0043 18.8419C34.9175 19.1842 34.5703 19.392 34.2275 19.3067C33.8856 19.2194 33.6785 18.8722 33.7639 18.5299L34.4029 15.9627C34.5097 15.5713 34.8724 15.4445 35.198 15.5144C35.5236 15.5841 35.7334 15.932 35.6483 16.2759ZM32.9107 16.3084C33.1595 16.5587 33.1595 16.9628 32.9107 17.213L32.7215 17.4022L32.9107 17.5913C33.1595 17.8415 33.1595 18.2457 32.9107 18.4959C32.6605 18.7447 32.2563 18.7447 32.0061 18.4959L31.3621 17.8569C31.11 17.6061 31.11 17.1981 31.3621 16.9473L32.0061 16.3083C32.3588 16.0311 32.6567 16.0793 32.9107 16.3084ZM37.4049 16.3084L38.0439 16.9475C38.296 17.1982 38.296 17.6062 38.0439 17.857L37.4049 18.496C37.1541 18.7481 36.7461 18.7481 36.4953 18.496C36.2465 18.2458 36.2465 17.8416 36.4953 17.5914L36.6858 17.4023L36.4953 17.2132C36.2465 16.963 36.2465 16.5588 36.4953 16.3086C36.847 16.0526 37.0236 15.9938 37.4049 16.3084ZM0.809765 18.3633C0.749079 19.8401 1.22511 20.7833 2.62775 20.9681H14.1671L13.8113 23.45H10.6025C9.08486 23.4556 8.3864 24.6906 7.91254 25.5237C7.42844 26.3296 8.04781 27.4181 8.98754 27.4181H26.2101C27.1499 27.4181 27.7642 26.3296 27.2801 25.5237C26.7183 24.4212 26.2363 23.5115 24.5951 23.45H21.3826L21.0293 20.9681H28.9339V18.3632L0.809765 18.3633ZM30.2119 24.7807V27.0297C30.2119 27.3916 30.494 27.6687 30.8559 27.6687H38.5563C38.9182 27.6687 39.1953 27.3916 39.1953 27.0297V24.7807H30.2119ZM34.7024 25.4235C35.0571 25.4221 35.3457 25.7089 35.3464 26.0637C35.3478 26.42 35.0586 26.7091 34.7024 26.7077C34.3476 26.707 34.0607 26.4185 34.0621 26.0637C34.0628 25.7104 34.3491 25.4242 34.7024 25.4235Z" fill="black"/>
</svg>
