<svg width="22" height="26" viewBox="0 0 22 26" fill="none" xmlns="http://www.w3.org/2000/svg">
<path d="M12.3815 0.468368C12.3334 0.372181 12.2543 0.295047 12.1569 0.249467C12.0595 0.203886 11.9495 0.19253 11.8449 0.217239C11.7402 0.241949 11.647 0.301275 11.5803 0.385604C11.5135 0.469932 11.4773 0.574321 11.4773 0.681852V16.1503C11.4773 16.2426 11.5041 16.333 11.5545 16.4105C11.6049 16.4879 11.6767 16.549 11.7611 16.5865C12.1636 16.7614 12.4935 17.0697 12.6953 17.4594C12.8971 17.8491 12.9585 18.2964 12.8691 18.726C12.7798 19.1556 12.5451 19.5414 12.2047 19.8183C11.8643 20.0952 11.4388 20.2464 11 20.2464C10.5612 20.2464 10.1357 20.0952 9.79532 19.8183C9.45489 19.5414 9.22025 19.1556 9.13091 18.726C9.04156 18.2964 9.10296 17.8491 9.30476 17.4594C9.50656 17.0697 9.83645 16.7614 10.2389 16.5865C10.3234 16.549 10.3951 16.4879 10.4455 16.4105C10.4959 16.333 10.5227 16.2426 10.5227 16.1503V0.681852C10.5228 0.574321 10.4865 0.469932 10.4198 0.385604C10.353 0.301275 10.2598 0.241949 10.1551 0.217239C10.0505 0.19253 9.94055 0.203886 9.84316 0.249467C9.74576 0.295047 9.66662 0.372181 9.61854 0.468368L0.550362 18.6047C0.517241 18.671 0.5 18.7441 0.5 18.8182C0.5 18.8923 0.517241 18.9654 0.550362 19.0317L4.02314 25.9773H17.9769L21.4497 19.0317C21.4828 18.9654 21.5 18.8923 21.5 18.8182C21.5 18.7441 21.4828 18.671 21.4497 18.6047L12.3815 0.468368Z" fill="black"/>
</svg>
