<svg width="40" height="18" viewBox="0 0 40 18" fill="none" xmlns="http://www.w3.org/2000/svg">
<path d="M39.511 7.27543C39.1109 5.33641 38.0488 3.59691 36.5068 2.35508C34.9648 1.11324 33.0389 0.446387 31.0591 0.468809H8.84375C6.58112 0.468809 4.41117 1.36763 2.81125 2.96755C1.21133 4.56747 0.3125 6.73743 0.3125 9.00006C0.3125 11.2627 1.21133 13.4326 2.81125 15.0326C4.41117 16.6325 6.58112 17.5313 8.84375 17.5313H31.0683C31.0919 17.5313 31.1156 17.5313 31.1392 17.5313C31.7243 17.5311 32.3079 17.471 32.8809 17.3522C35.0963 16.8942 37.0391 15.5751 38.282 13.6849C39.525 11.7948 39.9663 9.48833 39.509 7.27281L39.511 7.27543ZM36.6162 4.28097L33.8836 8.437L32.2377 7.35484L35.1253 2.96978C35.6801 3.33631 36.1818 3.77752 36.6162 4.28097ZM31.9483 1.82593C32.6405 1.90153 33.3177 2.07842 33.9584 2.35093L31.1412 6.63362L29.4966 5.55212L31.9483 1.82593ZM29.6095 10.3664C29.5844 10.3366 29.5567 10.3092 29.5268 10.2843C29.4919 10.2663 29.4555 10.2515 29.4178 10.2404L29.2925 6.98931L32.6446 9.19693L29.6095 10.3664ZM1.625 9.00006C1.625 7.57233 2.04837 6.17665 2.84158 4.98954C3.63479 3.80242 4.7622 2.87717 6.08125 2.3308C7.40031 1.78443 8.85176 1.64148 10.2521 1.92002C11.6524 2.19855 12.9386 2.88607 13.9482 3.89563C14.9577 4.90519 15.6453 6.19145 15.9238 7.59175C16.2023 8.99205 16.0594 10.4435 15.513 11.7626C14.9666 13.0816 14.0414 14.209 12.8543 15.0022C11.6672 15.7954 10.2715 16.2188 8.84375 16.2188C6.92991 16.2166 5.09511 15.4553 3.74182 14.102C2.38853 12.7487 1.62726 10.9139 1.625 9.00006ZM13.3719 16.2188C14.5974 15.4545 15.6081 14.3908 16.3089 13.1278C17.0096 11.8649 17.3774 10.4444 17.3774 9.00006C17.3774 7.55574 17.0096 6.13521 16.3089 4.87228C15.6081 3.60936 14.5974 2.54563 13.3719 1.78131H26.6183C25.4089 2.54064 24.4096 3.59155 23.712 4.83761C23.0145 6.08368 22.6411 7.48497 22.626 8.91291C22.611 10.3408 22.9549 11.7497 23.626 13.0102C24.2972 14.2706 25.2742 15.3423 26.4673 16.1269C26.5172 16.1597 26.5684 16.1873 26.6183 16.2188H13.3719ZM37.1872 12.9671C36.6684 13.7609 35.9973 14.4439 35.2127 14.9765C34.4281 15.5091 33.5457 15.8807 32.6164 16.0698C32.136 16.1687 31.6468 16.2186 31.1562 16.2188H31.1418C29.3555 16.2151 27.6341 15.5492 26.3103 14.3499C24.9865 13.1505 24.1543 11.503 23.9748 9.72578C23.7952 7.94855 24.2809 6.16785 25.3381 4.72797C26.3952 3.28808 27.9486 2.29128 29.6981 1.93028C29.9245 1.88303 30.1515 1.85022 30.3779 1.82528L28.0391 5.37887C28.0351 5.38478 28.0351 5.392 28.0318 5.3979C27.9921 5.46119 27.9637 5.53092 27.9478 5.60397C27.9478 5.62037 27.9478 5.63612 27.9433 5.65253C27.9363 5.68954 27.9325 5.72709 27.9321 5.76475L28.1414 11.1959L27.5351 12.1146C27.486 12.1866 27.4517 12.2675 27.4342 12.3529C27.4167 12.4382 27.4163 12.5261 27.4332 12.6116C27.45 12.697 27.4837 12.7783 27.5323 12.8506C27.5809 12.9229 27.6433 12.9848 27.7161 13.0327C27.7888 13.0806 27.8703 13.1136 27.9559 13.1296C28.0415 13.1457 28.1295 13.1446 28.2146 13.1263C28.2998 13.108 28.3805 13.073 28.452 13.0233C28.5234 12.9735 28.5843 12.91 28.631 12.8365L29.2374 11.9177L34.3062 9.95818C34.3409 9.94294 34.3741 9.92449 34.4053 9.90306C34.4191 9.89453 34.4342 9.88928 34.4473 9.87943C34.5083 9.83604 34.5613 9.78255 34.6042 9.72128C34.6081 9.71603 34.6147 9.71275 34.618 9.70684L37.4287 5.43268C38.0875 6.58862 38.4135 7.90435 38.3707 9.23416C38.3278 10.564 37.9178 11.856 37.1859 12.9671H37.1872Z" fill="black"/>
</svg>
